<?xml version="1.0" encoding="iso-8859-1"?>
<!-- Generator: Adobe Illustrator 19.0.0, SVG Export Plug-In . SVG Version: 6.00 Build 0)  -->
<svg version="1.1" id="Capa_1" xmlns="http://www.w3.org/2000/svg" xmlns:xlink="http://www.w3.org/1999/xlink" x="0px" y="0px"
	 viewBox="0 0 53 53" style="enable-background:new 0 0 53 53;" xml:space="preserve">
<g>
	<g>
		<path d="M45.707,10.075l-9.794-9.783C35.726,0.105,35.471,0,35.206,0H8C7.447,0,7,0.448,7,1v51c0,0.552,0.447,1,1,1h37
			c0.553,0,1-0.448,1-1V10.783C46,10.517,45.895,10.263,45.707,10.075z M42.586,10H36V3.414L42.586,10z M9,51V2h25v9
			c0,0.552,0.447,1,1,1h9v39H9z"/>
		<path d="M39,17H14c-0.553,0-1,0.448-1,1v28c0,0.552,0.447,1,1,1h25c0.553,0,1-0.448,1-1V18C40,17.448,39.553,17,39,17z M38,45H15
			V19h23V45z"/>
		<path d="M26.5,41c4.687,0,8.5-3.813,8.5-8.5S31.187,24,26.5,24S18,27.813,18,32.5S21.813,41,26.5,41z M33,32.5
			c0,3.584-2.916,6.5-6.5,6.5c-1.321,0-2.55-0.398-3.577-1.078l8.633-9.497C32.458,29.541,33,30.958,33,32.5z M26.5,26
			c1.321,0,2.55,0.399,3.577,1.078l-8.633,9.497C20.542,35.459,20,34.042,20,32.5C20,28.916,22.916,26,26.5,26z"/>
	</g>
</g>
<g>
</g>
<g>
</g>
<g>
</g>
<g>
</g>
<g>
</g>
<g>
</g>
<g>
</g>
<g>
</g>
<g>
</g>
<g>
</g>
<g>
</g>
<g>
</g>
<g>
</g>
<g>
</g>
<g>
</g>
</svg>
