<?xml version="1.0" encoding="iso-8859-1"?>
<!-- Generator: Adobe Illustrator 19.0.0, SVG Export Plug-In . SVG Version: 6.00 Build 0)  -->
<svg version="1.1" id="Capa_1" xmlns="http://www.w3.org/2000/svg" xmlns:xlink="http://www.w3.org/1999/xlink" x="0px" y="0px"
	 viewBox="0 0 53 53" style="enable-background:new 0 0 53 53;" xml:space="preserve">
<g>
	<g>
		<path d="M45.707,10.074l-9.794-9.782C35.726,0.105,35.471,0,35.206,0H8C7.447,0,7,0.447,7,1v51c0,0.553,0.447,1,1,1h37
			c0.553,0,1-0.447,1-1V10.782C46,10.517,45.895,10.263,45.707,10.074z M42.586,10H36V3.414L42.586,10z M9,51V2h25v9
			c0,0.553,0.447,1,1,1h9v39H9z"/>
		<path d="M27.839,34.106l-3.888,3.887c-0.646,0.646-1.542,0.976-2.528,0.923c-1.022-0.054-2.009-0.506-2.776-1.274
			c-1.56-1.559-1.717-3.939-0.352-5.306l3.887-3.887c0.391-0.391,0.391-1.023,0-1.414c-0.391-0.391-1.023-0.391-1.414,0
			l-3.887,3.887c-2.146,2.146-1.988,5.796,0.352,8.134c1.117,1.118,2.568,1.778,4.085,1.857c0.104,0.006,0.208,0.009,0.311,0.009
			c1.438,0,2.755-0.532,3.737-1.515l3.888-3.887c0.391-0.391,0.391-1.023,0-1.414S28.229,33.716,27.839,34.106z"/>
		<path d="M28.19,19.612L24.303,23.5c-0.391,0.391-0.391,1.023,0,1.414s1.023,0.391,1.414,0l3.888-3.888
			c1.365-1.364,3.747-1.208,5.306,0.352c1.559,1.56,1.717,3.94,0.352,5.306l-3.888,3.887c-0.391,0.391-0.391,1.023,0,1.414
			c0.195,0.195,0.451,0.293,0.707,0.293c0.256,0,0.512-0.098,0.707-0.293l3.888-3.887c2.145-2.146,1.987-5.794-0.352-8.134
			C33.984,17.625,30.337,17.468,28.19,19.612z"/>
		<path d="M28.546,24.914l-7.071,7.07c-0.391,0.391-0.391,1.023,0,1.414c0.195,0.195,0.451,0.293,0.707,0.293
			c0.256,0,0.512-0.098,0.707-0.293l7.071-7.07c0.391-0.391,0.391-1.023,0-1.414S28.937,24.523,28.546,24.914z"/>
	</g>
</g>
<g>
</g>
<g>
</g>
<g>
</g>
<g>
</g>
<g>
</g>
<g>
</g>
<g>
</g>
<g>
</g>
<g>
</g>
<g>
</g>
<g>
</g>
<g>
</g>
<g>
</g>
<g>
</g>
<g>
</g>
</svg>
