<?xml version="1.0" encoding="iso-8859-1"?>
<!-- Generator: Adobe Illustrator 19.0.0, SVG Export Plug-In . SVG Version: 6.00 Build 0)  -->
<svg version="1.1" id="Capa_1" xmlns="http://www.w3.org/2000/svg" xmlns:xlink="http://www.w3.org/1999/xlink" x="0px" y="0px"
	 viewBox="0 0 48 48" style="enable-background:new 0 0 48 48;" xml:space="preserve">
<g>
	<g>
		<path d="M47.988,21.94c-0.006-0.091-0.023-0.179-0.054-0.266c-0.011-0.032-0.019-0.063-0.033-0.094
			c-0.048-0.103-0.108-0.199-0.191-0.283c-0.001-0.002-0.002-0.003-0.004-0.005L42,15.586V10c0-0.021-0.011-0.04-0.012-0.061
			c-0.006-0.089-0.023-0.175-0.052-0.259c-0.011-0.032-0.019-0.062-0.033-0.093c-0.049-0.106-0.11-0.207-0.196-0.293l-9-9
			c-0.086-0.086-0.186-0.147-0.292-0.196c-0.031-0.014-0.063-0.023-0.095-0.034c-0.083-0.028-0.168-0.045-0.256-0.051
			C32.042,0.011,32.022,0,32,0H7C6.447,0,6,0.448,6,1v14.586l-5.706,5.706c-0.002,0.002-0.002,0.003-0.004,0.005
			c-0.083,0.083-0.143,0.18-0.191,0.283c-0.014,0.03-0.022,0.062-0.033,0.094c-0.03,0.086-0.048,0.174-0.054,0.266
			C0.011,21.961,0,21.979,0,22v19c0,0.552,0.447,1,1,1h5v5c0,0.552,0.447,1,1,1h34c0.553,0,1-0.448,1-1v-5h5c0.553,0,1-0.448,1-1V22
			C48,21.979,47.989,21.961,47.988,21.94z M44.586,21H42v-2.586L44.586,21z M38.586,9H33V3.414L38.586,9z M8,2h23v8
			c0,0.552,0.447,1,1,1h8v5v5H8v-5V2z M6,18.414V21H3.414L6,18.414z M40,46H8v-4h32V46z M46,40H2V23h5h34h5V40z"/>
		<path d="M30.893,32.143c0.221-0.153,0.422-0.354,0.604-0.603c0.181-0.249,0.331-0.552,0.451-0.91
			c0.119-0.357,0.178-0.767,0.178-1.232c0-0.601-0.085-1.116-0.255-1.547c-0.17-0.431-0.405-0.788-0.705-1.071
			c-0.3-0.283-0.66-0.49-1.08-0.621c-0.419-0.13-0.878-0.195-1.377-0.195h-3.434V38h1.972v-5.134h1.139L30.256,38h2.142
			l-2.159-5.542C30.454,32.401,30.673,32.297,30.893,32.143z M29.635,30.902c-0.323,0.312-0.734,0.468-1.233,0.468h-1.156v-3.706
			h1.156c0.204,0,0.408,0.028,0.612,0.085c0.204,0.057,0.388,0.153,0.552,0.289s0.298,0.323,0.399,0.561s0.153,0.538,0.153,0.901
			C30.12,30.123,29.958,30.591,29.635,30.902z"/>
		<path d="M22.742,32.552c-0.193-0.244-0.405-0.434-0.638-0.57c-0.232-0.136-0.462-0.232-0.688-0.289v-0.034
			c0.419-0.17,0.788-0.47,1.105-0.901c0.317-0.431,0.476-1.02,0.476-1.768c0-0.623-0.108-1.13-0.323-1.522
			c-0.215-0.391-0.487-0.696-0.816-0.918c-0.329-0.221-0.691-0.373-1.088-0.459c-0.397-0.085-0.771-0.127-1.122-0.127h-3.196V38
			h3.57c0.385,0,0.779-0.057,1.181-0.17c0.402-0.113,0.765-0.303,1.088-0.57c0.323-0.266,0.589-0.611,0.799-1.036
			c0.21-0.426,0.315-0.955,0.315-1.59c0-0.453-0.062-0.853-0.187-1.198C23.093,33.09,22.935,32.795,22.742,32.552z M18.356,27.664
			h1.122c0.215,0,0.425,0.028,0.629,0.085s0.382,0.15,0.535,0.28c0.153,0.131,0.278,0.301,0.374,0.51
			c0.096,0.21,0.145,0.468,0.145,0.774s-0.048,0.567-0.145,0.782c-0.096,0.215-0.221,0.391-0.374,0.527
			c-0.153,0.136-0.329,0.235-0.527,0.297c-0.198,0.063-0.399,0.094-0.604,0.094h-1.156C18.356,31.013,18.356,27.664,18.356,27.664z
			 M21.306,35.28c-0.096,0.227-0.227,0.416-0.391,0.57c-0.164,0.153-0.354,0.266-0.569,0.339c-0.215,0.074-0.448,0.111-0.697,0.111
			h-1.292v-3.757h1.241c0.215,0,0.431,0.034,0.646,0.102s0.414,0.178,0.595,0.331c0.181,0.154,0.329,0.352,0.442,0.596
			c0.113,0.243,0.17,0.541,0.17,0.892C21.45,34.781,21.402,35.053,21.306,35.28z"/>
	</g>
</g>
<g>
</g>
<g>
</g>
<g>
</g>
<g>
</g>
<g>
</g>
<g>
</g>
<g>
</g>
<g>
</g>
<g>
</g>
<g>
</g>
<g>
</g>
<g>
</g>
<g>
</g>
<g>
</g>
<g>
</g>
</svg>
