<?xml version="1.0" encoding="iso-8859-1"?>
<!-- Generator: Adobe Illustrator 19.0.0, SVG Export Plug-In . SVG Version: 6.00 Build 0)  -->
<svg version="1.1" id="Capa_1" xmlns="http://www.w3.org/2000/svg" xmlns:xlink="http://www.w3.org/1999/xlink" x="0px" y="0px"
	 viewBox="0 0 48 48" style="enable-background:new 0 0 48 48;" xml:space="preserve">
<g>
	<g>
		<path d="M47.988,21.94c-0.006-0.091-0.023-0.179-0.054-0.266c-0.011-0.032-0.019-0.063-0.033-0.094
			c-0.048-0.103-0.108-0.199-0.191-0.283c-0.001-0.002-0.002-0.003-0.004-0.005L42,15.586V10c0-0.021-0.011-0.04-0.012-0.061
			c-0.006-0.089-0.023-0.175-0.052-0.259c-0.011-0.032-0.019-0.062-0.033-0.093c-0.049-0.106-0.11-0.207-0.196-0.293l-9-9
			c-0.086-0.086-0.186-0.147-0.292-0.195c-0.032-0.015-0.063-0.023-0.096-0.034c-0.083-0.028-0.166-0.045-0.253-0.051
			C32.043,0.012,32.023,0,32,0H7C6.447,0,6,0.448,6,1v14.586l-5.706,5.706c-0.002,0.002-0.002,0.003-0.004,0.005
			c-0.083,0.083-0.143,0.18-0.191,0.283c-0.014,0.03-0.022,0.062-0.033,0.094c-0.03,0.086-0.048,0.174-0.054,0.266
			C0.011,21.961,0,21.979,0,22v19c0,0.552,0.447,1,1,1h5v5c0,0.552,0.447,1,1,1h34c0.553,0,1-0.448,1-1v-5h5c0.553,0,1-0.448,1-1V22
			C48,21.979,47.989,21.961,47.988,21.94z M42,18.414L44.586,21H42V18.414z M38.586,9H33V3.414L38.586,9z M8,16V2h23v8
			c0,0.552,0.447,1,1,1h8v5v5H8V16z M6,18.414V21H3.414L6,18.414z M40,46H8v-4h32V46z M46,40H2V23h5h34h5V40z"/>
		<path d="M35.535,32.143c0.221-0.153,0.422-0.354,0.604-0.603c0.181-0.249,0.332-0.552,0.451-0.91
			c0.119-0.357,0.179-0.767,0.179-1.232c0-0.601-0.085-1.116-0.255-1.547c-0.17-0.431-0.405-0.788-0.706-1.071
			c-0.3-0.283-0.66-0.49-1.079-0.621c-0.419-0.13-0.878-0.195-1.377-0.195h-3.434V38h1.972v-5.134h1.139L34.897,38h2.142
			l-2.159-5.542C35.095,32.401,35.313,32.297,35.535,32.143z M34.277,30.902c-0.323,0.312-0.734,0.468-1.232,0.468h-1.156v-3.706
			h1.156c0.204,0,0.408,0.028,0.612,0.085s0.388,0.153,0.553,0.289s0.298,0.323,0.4,0.561c0.102,0.238,0.153,0.538,0.153,0.901
			C34.761,30.123,34.599,30.591,34.277,30.902z"/>
		<path d="M14.004,28.854c0.204-0.397,0.459-0.711,0.765-0.944c0.306-0.232,0.663-0.348,1.071-0.348
			c0.737,0,1.337,0.334,1.802,1.003l1.173-1.428c-0.329-0.476-0.754-0.841-1.275-1.097c-0.521-0.255-1.128-0.382-1.819-0.382
			c-0.669,0-1.278,0.156-1.828,0.467c-0.55,0.312-1.017,0.748-1.403,1.309c-0.385,0.562-0.683,1.23-0.892,2.006
			c-0.21,0.777-0.314,1.624-0.314,2.542c0,0.918,0.105,1.762,0.314,2.533s0.504,1.436,0.884,1.997
			c0.38,0.562,0.844,1.001,1.394,1.318s1.165,0.476,1.844,0.476c0.748,0,1.369-0.147,1.862-0.442
			c0.493-0.295,0.898-0.68,1.215-1.156l-1.173-1.377c-0.193,0.295-0.434,0.544-0.722,0.748s-0.632,0.306-1.028,0.306
			c-0.419,0-0.785-0.116-1.097-0.349c-0.312-0.232-0.569-0.546-0.774-0.943s-0.357-0.864-0.459-1.403
			c-0.102-0.538-0.153-1.107-0.153-1.708c0-0.612,0.051-1.187,0.153-1.726C13.647,29.718,13.8,29.251,14.004,28.854z"/>
		<path d="M23.269,25.964h-3.026V38h3.009c1.553,0,2.729-0.524,3.528-1.573c0.799-1.048,1.198-2.524,1.198-4.428
			c0-1.904-0.399-3.386-1.198-4.446C25.98,26.494,24.81,25.964,23.269,25.964z M25.743,33.843c-0.13,0.528-0.315,0.967-0.552,1.318
			s-0.521,0.615-0.85,0.79c-0.329,0.176-0.686,0.264-1.071,0.264H22.3v-8.466h0.969c0.385,0,0.742,0.088,1.071,0.263
			c0.329,0.176,0.612,0.44,0.85,0.791c0.238,0.351,0.422,0.793,0.552,1.326c0.13,0.533,0.195,1.156,0.195,1.87
			C25.938,32.702,25.873,33.316,25.743,33.843z"/>
	</g>
</g>
<g>
</g>
<g>
</g>
<g>
</g>
<g>
</g>
<g>
</g>
<g>
</g>
<g>
</g>
<g>
</g>
<g>
</g>
<g>
</g>
<g>
</g>
<g>
</g>
<g>
</g>
<g>
</g>
<g>
</g>
</svg>
