<svg id="Capa_1" enable-background="new 0 0 443.294 443.294" height="512" viewBox="0 0 443.294 443.294" width="512" xmlns="http://www.w3.org/2000/svg"><path d="m415.588 415.588h-387.882c-15.274 0-27.706-12.432-27.706-27.706v-332.47c0-15.273 12.432-27.706 27.706-27.706h124.676c3.68 0 7.197 1.461 9.794 4.058l51.353 51.353h202.058c15.273 0 27.706 12.432 27.706 27.706v277.059c.001 15.274-12.431 27.706-27.705 27.706zm-387.882-360.176v332.471h387.882v-277.059h-207.794c-3.68 0-7.197-1.461-9.794-4.058l-51.353-51.353c-.001-.001-118.941-.001-118.941-.001z"/></svg>