<?xml version="1.0" encoding="iso-8859-1"?>
<!-- Generator: Adobe Illustrator 19.0.0, SVG Export Plug-In . SVG Version: 6.00 Build 0)  -->
<svg version="1.1" id="Capa_1" xmlns="http://www.w3.org/2000/svg" xmlns:xlink="http://www.w3.org/1999/xlink" x="0px" y="0px"
	 viewBox="0 0 53 53" style="enable-background:new 0 0 53 53;" xml:space="preserve">
<g>
	<g>
		<path d="M45.707,10.074l-9.794-9.782C35.725,0.105,35.471,0,35.206,0H8C7.448,0,7,0.447,7,1v51c0,0.553,0.448,1,1,1h37
			c0.552,0,1-0.447,1-1V10.782C46,10.517,45.895,10.263,45.707,10.074z M42.586,10H36V3.414L42.586,10z M9,51V2h25v9
			c0,0.553,0.448,1,1,1h9v39H9z"/>
		<path d="M26.5,16C19.056,16,13,22.056,13,29.5S19.056,43,26.5,43S40,36.944,40,29.5S33.944,16,26.5,16z M26.5,41
			C20.159,41,15,35.841,15,29.5S20.159,18,26.5,18S38,23.159,38,29.5S32.841,41,26.5,41z"/>
		<path d="M29.237,33.935c-0.662,0.551-1.471,0.826-2.426,0.826c-0.785,0-1.515-0.202-2.188-0.606s-1.17-1.016-1.49-1.832
			c-0.319-0.818-0.479-1.774-0.479-2.87c0-0.85,0.135-1.675,0.404-2.474c0.27-0.801,0.737-1.438,1.402-1.912
			s1.493-0.712,2.483-0.712c0.861,0,1.576,0.214,2.145,0.642s1.002,1.11,1.301,2.048l1.679-0.396
			c-0.346-1.19-0.958-2.112-1.837-2.769s-1.963-0.984-3.252-0.984c-1.137,0-2.178,0.259-3.125,0.778
			c-0.946,0.518-1.676,1.277-2.188,2.275c-0.513,1-0.769,2.17-0.769,3.512c0,1.23,0.227,2.382,0.681,3.454
			c0.454,1.072,1.116,1.892,1.986,2.456c0.87,0.566,2,0.849,3.388,0.849c1.342,0,2.477-0.367,3.406-1.103s1.572-1.804,1.929-3.204
			l-1.705-0.431C30.348,32.566,29.899,33.384,29.237,33.935z"/>
	</g>
</g>
<g>
</g>
<g>
</g>
<g>
</g>
<g>
</g>
<g>
</g>
<g>
</g>
<g>
</g>
<g>
</g>
<g>
</g>
<g>
</g>
<g>
</g>
<g>
</g>
<g>
</g>
<g>
</g>
<g>
</g>
</svg>
