<?xml version="1.0" encoding="iso-8859-1"?>
<!-- Generator: Adobe Illustrator 19.0.0, SVG Export Plug-In . SVG Version: 6.00 Build 0)  -->
<svg version="1.1" id="Capa_1" xmlns="http://www.w3.org/2000/svg" xmlns:xlink="http://www.w3.org/1999/xlink" x="0px" y="0px"
	 viewBox="0 0 54 54" style="enable-background:new 0 0 54 54;" xml:space="preserve">
<g>
	<g>
		<path d="M18.88,0.289C18.692,0.104,18.44,0,18.177,0H2C1.447,0,1,0.447,1,1v30c0,0.553,0.447,1,1,1h22c0.553,0,1-0.447,1-1V6.755
			c0-0.268-0.107-0.523-0.297-0.711L18.88,0.289z M21.567,5.883h-2.514V3.397L21.567,5.883z M3,30V2h14.054v4.883
			c0,0.553,0.447,1,1,1H23V30H3z"/>
		<path d="M52.703,28.044l-5.823-5.755C46.692,22.104,46.439,22,46.177,22H30c-0.553,0-1,0.447-1,1v30c0,0.553,0.447,1,1,1h22
			c0.553,0,1-0.447,1-1V28.755C53,28.487,52.893,28.231,52.703,28.044z M49.567,27.883h-2.514v-2.486L49.567,27.883z M31,52V24
			h14.054v4.883c0,0.553,0.447,1,1,1H51V52H31z"/>
	</g>
</g>
<g>
</g>
<g>
</g>
<g>
</g>
<g>
</g>
<g>
</g>
<g>
</g>
<g>
</g>
<g>
</g>
<g>
</g>
<g>
</g>
<g>
</g>
<g>
</g>
<g>
</g>
<g>
</g>
<g>
</g>
</svg>
