<?xml version="1.0" encoding="iso-8859-1"?>
<!-- Generator: Adobe Illustrator 19.0.0, SVG Export Plug-In . SVG Version: 6.00 Build 0)  -->
<svg version="1.1" id="Capa_1" xmlns="http://www.w3.org/2000/svg" xmlns:xlink="http://www.w3.org/1999/xlink" x="0px" y="0px"
	 viewBox="0 0 53 53" style="enable-background:new 0 0 53 53;" xml:space="preserve">
<g>
	<g>
		<path d="M45.707,10.074l-9.794-9.782C35.725,0.105,35.471,0,35.206,0H8C7.448,0,7,0.447,7,1v51c0,0.553,0.448,1,1,1h37
			c0.552,0,1-0.447,1-1V10.782C46,10.517,45.895,10.263,45.707,10.074z M42.586,10H36V3.414L42.586,10z M9,51V2h25v9
			c0,0.553,0.448,1,1,1h9v39H9z"/>
		<path d="M32.85,28.02c-0.087-0.133-0.157-0.317-0.21-0.55s-0.08-0.53-0.08-0.89v-3.2c0-0.92-0.17-1.653-0.51-2.2
			c-0.34-0.547-0.91-0.82-1.71-0.82h-1.18v1.58h0.64c0.387,0,0.647,0.15,0.78,0.45s0.2,0.683,0.2,1.15v3.36
			c0,0.4,0.04,0.743,0.12,1.03s0.18,0.52,0.3,0.7s0.253,0.317,0.4,0.41s0.287,0.153,0.42,0.18v0.04
			c-0.133,0.027-0.273,0.087-0.42,0.18s-0.28,0.23-0.4,0.41c-0.12,0.18-0.22,0.413-0.3,0.7s-0.12,0.63-0.12,1.03v3.36
			c0,0.467-0.067,0.85-0.2,1.15c-0.133,0.3-0.393,0.45-0.78,0.45h-0.64v1.58h1.18c0.8,0,1.37-0.273,1.71-0.82
			c0.34-0.547,0.51-1.28,0.51-2.2v-3.2c0-0.36,0.027-0.657,0.08-0.89s0.123-0.417,0.21-0.55c0.087-0.133,0.197-0.227,0.33-0.28
			s0.28-0.08,0.44-0.08v-1.72c-0.16,0-0.307-0.027-0.44-0.08S32.937,28.153,32.85,28.02z"/>
		<path d="M20.57,21.18c-0.34,0.547-0.51,1.28-0.51,2.2v3.2c0,0.36-0.027,0.657-0.08,0.89s-0.127,0.417-0.22,0.55
			s-0.203,0.227-0.33,0.28c-0.127,0.053-0.27,0.08-0.43,0.08v1.72c0.16,0,0.303,0.027,0.43,0.08c0.127,0.053,0.237,0.147,0.33,0.28
			s0.167,0.317,0.22,0.55s0.08,0.53,0.08,0.89v3.2c0,0.92,0.17,1.653,0.51,2.2s0.91,0.82,1.71,0.82h1.16v-1.58H22.8
			c-0.373,0-0.627-0.15-0.76-0.45s-0.2-0.683-0.2-1.15v-3.36c0-0.4-0.04-0.743-0.12-1.03c-0.08-0.287-0.183-0.52-0.31-0.7
			c-0.127-0.18-0.263-0.317-0.41-0.41c-0.147-0.093-0.287-0.153-0.42-0.18v-0.04c0.133-0.027,0.273-0.087,0.42-0.18
			c0.147-0.093,0.283-0.23,0.41-0.41c0.127-0.18,0.23-0.413,0.31-0.7c0.08-0.287,0.12-0.63,0.12-1.03v-3.36
			c0-0.467,0.067-0.85,0.2-1.15s0.387-0.45,0.76-0.45h0.64v-1.58h-1.16C21.48,20.36,20.91,20.633,20.57,21.18z"/>
	</g>
</g>
<g>
</g>
<g>
</g>
<g>
</g>
<g>
</g>
<g>
</g>
<g>
</g>
<g>
</g>
<g>
</g>
<g>
</g>
<g>
</g>
<g>
</g>
<g>
</g>
<g>
</g>
<g>
</g>
<g>
</g>
</svg>
