<?xml version="1.0" encoding="iso-8859-1"?>
<!-- Generator: Adobe Illustrator 19.0.0, SVG Export Plug-In . SVG Version: 6.00 Build 0)  -->
<svg version="1.1" id="Capa_1" xmlns="http://www.w3.org/2000/svg" xmlns:xlink="http://www.w3.org/1999/xlink" x="0px" y="0px"
	 viewBox="0 0 53 53" style="enable-background:new 0 0 53 53;" xml:space="preserve">
<g>
	<g>
		<path d="M8,3.804c-0.552,0-1,0.448-1,1v4c0,0.552,0.448,1,1,1s1-0.448,1-1v-4C9,4.252,8.552,3.804,8,3.804z"/>
		<path d="M14.196,2c0.552,0,1-0.448,1-1s-0.448-1-1-1h-4c-0.552,0-1,0.448-1,1s0.448,1,1,1H14.196z"/>
		<path d="M14.804,51h-4c-0.552,0-1,0.448-1,1s0.448,1,1,1h4c0.552,0,1-0.448,1-1S15.356,51,14.804,51z"/>
		<path d="M24.196,2c0.552,0,1-0.448,1-1s-0.448-1-1-1h-4c-0.552,0-1,0.448-1,1s0.448,1,1,1H24.196z"/>
		<path d="M8,43.804c-0.552,0-1,0.448-1,1v4c0,0.552,0.448,1,1,1s1-0.448,1-1v-4C9,44.252,8.552,43.804,8,43.804z"/>
		<path d="M8,33.804c-0.552,0-1,0.448-1,1v4c0,0.552,0.448,1,1,1s1-0.448,1-1v-4C9,34.252,8.552,33.804,8,33.804z"/>
		<path d="M8,13.804c-0.552,0-1,0.448-1,1v4c0,0.552,0.448,1,1,1s1-0.448,1-1v-4C9,14.252,8.552,13.804,8,13.804z"/>
		<path d="M8,23.804c-0.552,0-1,0.448-1,1v4c0,0.552,0.448,1,1,1s1-0.448,1-1v-4C9,24.252,8.552,23.804,8,23.804z"/>
		<path d="M45,20.93c-0.552,0-1,0.448-1,1v4.266c0,0.552,0.448,1,1,1s1-0.448,1-1V21.93C46,21.378,45.552,20.93,45,20.93z"/>
		<path d="M45.873,11.468c0.016-0.029,0.038-0.054,0.051-0.085c0.155-0.374,0.069-0.804-0.217-1.09l-3.189-3.189
			c-0.043-0.167-0.114-0.328-0.245-0.458l-2.83-2.827c-0.13-0.129-0.289-0.2-0.453-0.243l-3.283-3.283
			c-0.287-0.287-0.716-0.372-1.09-0.217c-0.007,0.003-0.012,0.008-0.019,0.011C34.475,0.033,34.34,0,34.196,0h-4
			c-0.552,0-1,0.448-1,1s0.448,1,1,1H34v9c0,0.552,0.448,1,1,1h9v3.93c0,0.552,0.448,1,1,1s1-0.448,1-1v-4
			C46,11.76,45.947,11.608,45.873,11.468z M36,10V3.414L42.586,10H36z"/>
		<path d="M45,31.196c-0.552,0-1,0.448-1,1v4c0,0.552,0.448,1,1,1s1-0.448,1-1v-4C46,31.644,45.552,31.196,45,31.196z"/>
		<path d="M24.804,51h-4c-0.552,0-1,0.448-1,1s0.448,1,1,1h4c0.552,0,1-0.448,1-1S25.356,51,24.804,51z"/>
		<path d="M34.804,51h-4c-0.552,0-1,0.448-1,1s0.448,1,1,1h4c0.552,0,1-0.448,1-1S35.356,51,34.804,51z"/>
		<path d="M45,41.196c-0.552,0-1,0.448-1,1v4c0,0.552,0.448,1,1,1s1-0.448,1-1v-4C46,41.644,45.552,41.196,45,41.196z"/>
		<path d="M44.804,51h-4c-0.552,0-1,0.448-1,1s0.448,1,1,1h4c0.552,0,1-0.448,1-1S45.356,51,44.804,51z"/>
	</g>
</g>
<g>
</g>
<g>
</g>
<g>
</g>
<g>
</g>
<g>
</g>
<g>
</g>
<g>
</g>
<g>
</g>
<g>
</g>
<g>
</g>
<g>
</g>
<g>
</g>
<g>
</g>
<g>
</g>
<g>
</g>
</svg>
