<?xml version="1.0" encoding="iso-8859-1"?>
<!-- Generator: Adobe Illustrator 19.0.0, SVG Export Plug-In . SVG Version: 6.00 Build 0)  -->
<svg version="1.1" id="Capa_1" xmlns="http://www.w3.org/2000/svg" xmlns:xlink="http://www.w3.org/1999/xlink" x="0px" y="0px"
	 viewBox="0 0 48 48" style="enable-background:new 0 0 48 48;" xml:space="preserve">
<g>
	<g>
		<path d="M47.988,21.94c-0.006-0.091-0.023-0.179-0.054-0.266c-0.011-0.032-0.019-0.063-0.033-0.094
			c-0.048-0.103-0.108-0.199-0.191-0.283c-0.001-0.002-0.002-0.003-0.004-0.005L42,15.586V10c0-0.021-0.011-0.04-0.012-0.061
			c-0.006-0.089-0.023-0.175-0.052-0.259c-0.011-0.032-0.019-0.062-0.033-0.093c-0.049-0.106-0.11-0.207-0.196-0.293l-9-9
			c-0.086-0.086-0.186-0.147-0.292-0.195c-0.031-0.014-0.063-0.023-0.096-0.034c-0.083-0.028-0.167-0.045-0.255-0.051
			C32.042,0.011,32.022,0,32,0H7C6.447,0,6,0.448,6,1v14.586l-5.706,5.706c-0.002,0.002-0.002,0.003-0.004,0.005
			c-0.083,0.083-0.143,0.18-0.191,0.283c-0.014,0.03-0.022,0.062-0.033,0.094c-0.03,0.086-0.048,0.174-0.054,0.266
			C0.011,21.961,0,21.979,0,22v19c0,0.552,0.447,1,1,1h5v5c0,0.552,0.447,1,1,1h34c0.553,0,1-0.448,1-1v-5h5c0.553,0,1-0.448,1-1V22
			C48,21.979,47.989,21.961,47.988,21.94z M44.586,21H42v-2.586L44.586,21z M38.586,9H33V3.414L38.586,9z M8,2h23v8
			c0,0.552,0.447,1,1,1h8v5v5H8v-5V2z M6,18.414V21H3.414L6,18.414z M40,46H8v-4h32V46z M46,40H2V23h5h34h5V40z"/>
		<polygon points="31.65,35.314 31.616,35.314 29.95,25.964 27.808,25.964 26.193,35.314 26.125,35.314 24.578,25.964 
			22.504,25.964 24.799,38 27.145,38 28.811,28.956 28.845,28.956 30.511,38 32.857,38 35.169,25.964 33.197,25.964 		"/>
		<path d="M16.877,25.964h-3.026V38h3.009c1.553,0,2.729-0.524,3.528-1.572c0.799-1.049,1.198-2.525,1.198-4.429
			c0-1.904-0.399-3.386-1.198-4.446C19.588,26.494,18.418,25.964,16.877,25.964z M19.351,33.843
			c-0.13,0.528-0.315,0.967-0.553,1.318c-0.238,0.351-0.521,0.615-0.85,0.79c-0.329,0.176-0.686,0.264-1.071,0.264h-0.969v-8.466
			h0.969c0.385,0,0.742,0.088,1.071,0.264c0.329,0.175,0.612,0.439,0.85,0.79c0.238,0.351,0.422,0.793,0.553,1.326
			c0.13,0.533,0.195,1.156,0.195,1.87C19.546,32.702,19.481,33.316,19.351,33.843z"/>
	</g>
</g>
<g>
</g>
<g>
</g>
<g>
</g>
<g>
</g>
<g>
</g>
<g>
</g>
<g>
</g>
<g>
</g>
<g>
</g>
<g>
</g>
<g>
</g>
<g>
</g>
<g>
</g>
<g>
</g>
<g>
</g>
</svg>
