<?xml version="1.0" encoding="iso-8859-1"?>
<!-- Generator: Adobe Illustrator 19.0.0, SVG Export Plug-In . SVG Version: 6.00 Build 0)  -->
<svg version="1.1" id="Capa_1" xmlns="http://www.w3.org/2000/svg" xmlns:xlink="http://www.w3.org/1999/xlink" x="0px" y="0px"
	 viewBox="0 0 53 53" style="enable-background:new 0 0 53 53;" xml:space="preserve">
<g>
	<g>
		<path d="M45.707,10.074l-9.794-9.782C35.725,0.105,35.471,0,35.206,0H8C7.448,0,7,0.447,7,1v51c0,0.553,0.448,1,1,1h37
			c0.552,0,1-0.447,1-1V10.782C46,10.517,45.895,10.263,45.707,10.074z M42.586,10H36V3.414L42.586,10z M9,51V2h25v9
			c0,0.553,0.448,1,1,1h9v39H9z"/>
		<path d="M39,17H14c-0.552,0-1,0.447-1,1v28c0,0.553,0.448,1,1,1h25c0.552,0,1-0.447,1-1V18C40,17.447,39.552,17,39,17z M38,45H15
			V19h23V45z"/>
		<path d="M17.755,41.268c0.081,0,0.162-0.01,0.243-0.03l5.657-1.414c0.03-0.007,0.056-0.023,0.084-0.033
			c0.03-0.01,0.057-0.021,0.086-0.034c0.108-0.049,0.208-0.111,0.29-0.193c0.001-0.001,0.003-0.001,0.004-0.002L34.73,28.949
			c1.557-1.558,1.555-4.093-0.005-5.651c-0.754-0.755-1.757-1.171-2.824-1.173c-0.002,0-0.005,0-0.007,0
			c-1.066,0-2.068,0.414-2.82,1.167L18.462,33.904c-0.001,0.001-0.002,0.003-0.003,0.004c-0.081,0.082-0.142,0.18-0.191,0.285
			c-0.013,0.027-0.022,0.054-0.033,0.082c-0.011,0.032-0.029,0.06-0.037,0.093l-1.414,5.656c-0.085,0.341,0.015,0.701,0.263,0.949
			C17.238,41.164,17.493,41.268,17.755,41.268z M19.711,36.567l0.872,0.872l0.872,0.872l-2.326,0.582L19.711,36.567z M30.488,24.706
			c0.376-0.377,0.9-0.548,1.41-0.581c0.534,0.001,1.036,0.209,1.414,0.587c0.78,0.779,0.782,2.046,0.005,2.823l-9.905,9.904
			l-1.414-1.414l-1.414-1.414L30.488,24.706z"/>
	</g>
</g>
<g>
</g>
<g>
</g>
<g>
</g>
<g>
</g>
<g>
</g>
<g>
</g>
<g>
</g>
<g>
</g>
<g>
</g>
<g>
</g>
<g>
</g>
<g>
</g>
<g>
</g>
<g>
</g>
<g>
</g>
</svg>
