<?xml version="1.0" encoding="iso-8859-1"?>
<!-- Generator: Adobe Illustrator 19.0.0, SVG Export Plug-In . SVG Version: 6.00 Build 0)  -->
<svg version="1.1" id="Capa_1" xmlns="http://www.w3.org/2000/svg" xmlns:xlink="http://www.w3.org/1999/xlink" x="0px" y="0px"
	 viewBox="0 0 48 48" style="enable-background:new 0 0 48 48;" xml:space="preserve">
<g>
	<g>
		<path d="M47.988,21.94c-0.006-0.091-0.023-0.179-0.054-0.266c-0.011-0.032-0.019-0.063-0.033-0.094
			c-0.048-0.103-0.108-0.199-0.191-0.283c-0.001-0.002-0.002-0.003-0.004-0.005L42,15.586V10c0-0.021-0.011-0.04-0.012-0.061
			c-0.006-0.089-0.023-0.175-0.052-0.259c-0.011-0.032-0.019-0.062-0.033-0.093c-0.049-0.106-0.11-0.207-0.196-0.293l-9-9
			c-0.086-0.086-0.186-0.147-0.292-0.195c-0.032-0.015-0.064-0.023-0.097-0.034c-0.082-0.028-0.166-0.044-0.252-0.05
			C32.043,0.012,32.023,0,32,0H7C6.447,0,6,0.448,6,1v14.586l-5.706,5.706c-0.002,0.002-0.002,0.003-0.004,0.005
			c-0.083,0.083-0.143,0.18-0.191,0.283c-0.014,0.03-0.022,0.062-0.033,0.094c-0.03,0.086-0.048,0.174-0.054,0.266
			C0.011,21.961,0,21.979,0,22v19c0,0.552,0.447,1,1,1h5v5c0,0.552,0.447,1,1,1h34c0.553,0,1-0.448,1-1v-5h5c0.553,0,1-0.448,1-1V22
			C48,21.979,47.989,21.961,47.988,21.94z M44.586,21H42v-2.586L44.586,21z M38.586,9H33V3.414L38.586,9z M8,2h23v8
			c0,0.552,0.447,1,1,1h8v5v5H8v-5V2z M6,18.414V21H3.414L6,18.414z M40,46H8v-4h32V46z M46,40H2V23h5h34h5V40z"/>
		<polygon points="15.449,32.628 18.628,32.628 18.628,30.962 15.449,30.962 15.449,27.766 18.883,27.766 18.883,25.964 
			13.494,25.964 13.494,38 19.053,38 19.053,36.181 15.449,36.181 		"/>
		<path d="M31.327,27.885c0.147-0.136,0.312-0.235,0.493-0.298c0.181-0.062,0.368-0.093,0.561-0.093
			c0.669,0,1.224,0.266,1.666,0.799l1.122-1.462c-0.329-0.385-0.734-0.677-1.215-0.876c-0.482-0.198-1.028-0.297-1.64-0.297
			c-0.419,0-0.833,0.071-1.241,0.212c-0.408,0.142-0.774,0.36-1.097,0.655c-0.323,0.295-0.584,0.666-0.782,1.113
			c-0.198,0.448-0.298,0.984-0.298,1.607c0,0.499,0.065,0.926,0.195,1.283c0.13,0.358,0.306,0.669,0.527,0.935
			c0.221,0.267,0.476,0.496,0.765,0.689c0.289,0.193,0.598,0.368,0.927,0.527c0.521,0.261,0.952,0.544,1.292,0.85
			c0.34,0.306,0.51,0.72,0.51,1.241c0,0.533-0.142,0.946-0.425,1.241c-0.283,0.295-0.64,0.442-1.071,0.442
			c-0.385,0-0.762-0.091-1.131-0.272c-0.368-0.181-0.683-0.431-0.943-0.748l-1.105,1.496c0.34,0.397,0.793,0.725,1.36,0.986
			s1.184,0.391,1.853,0.391c0.465,0,0.907-0.079,1.326-0.238c0.419-0.159,0.785-0.394,1.097-0.706
			c0.312-0.311,0.561-0.694,0.748-1.147s0.28-0.975,0.28-1.564c0-0.51-0.079-0.952-0.238-1.326
			c-0.159-0.374-0.363-0.697-0.612-0.969c-0.249-0.272-0.527-0.504-0.833-0.697c-0.306-0.193-0.606-0.363-0.901-0.51
			c-0.499-0.249-0.901-0.513-1.207-0.791c-0.306-0.277-0.459-0.671-0.459-1.181c0-0.295,0.042-0.55,0.128-0.765
			C31.063,28.197,31.18,28.021,31.327,27.885z"/>
		<path d="M26.524,26.72c-0.323-0.277-0.688-0.473-1.097-0.586c-0.408-0.113-0.805-0.17-1.19-0.17h-3.332V38h2.006v-4.828h1.428
			c0.419,0,0.827-0.074,1.224-0.221c0.397-0.147,0.748-0.374,1.054-0.68c0.306-0.306,0.552-0.688,0.74-1.148
			c0.187-0.459,0.281-0.994,0.281-1.606c0-0.68-0.105-1.247-0.315-1.7S26.847,26.998,26.524,26.72z M25.241,31.004
			c-0.306,0.335-0.697,0.502-1.173,0.502h-1.156v-3.825h1.156c0.476,0,0.867,0.147,1.173,0.442c0.306,0.295,0.459,0.765,0.459,1.411
			C25.7,30.18,25.547,30.67,25.241,31.004z"/>
	</g>
</g>
<g>
</g>
<g>
</g>
<g>
</g>
<g>
</g>
<g>
</g>
<g>
</g>
<g>
</g>
<g>
</g>
<g>
</g>
<g>
</g>
<g>
</g>
<g>
</g>
<g>
</g>
<g>
</g>
<g>
</g>
</svg>
