<?xml version="1.0" encoding="iso-8859-1"?>
<!-- Generator: Adobe Illustrator 19.0.0, SVG Export Plug-In . SVG Version: 6.00 Build 0)  -->
<svg version="1.1" id="Capa_1" xmlns="http://www.w3.org/2000/svg" xmlns:xlink="http://www.w3.org/1999/xlink" x="0px" y="0px"
	 viewBox="0 0 53 53" style="enable-background:new 0 0 53 53;" xml:space="preserve">
<g>
	<g>
		<path d="M45.707,10.075l-9.794-9.783C35.726,0.105,35.471,0,35.206,0H8C7.447,0,7,0.448,7,1v51c0,0.552,0.447,1,1,1h37
			c0.553,0,1-0.448,1-1V10.783C46,10.517,45.895,10.263,45.707,10.075z M42.586,10H36V3.414L42.586,10z M9,51V2h25v9
			c0,0.552,0.447,1,1,1h9v39H9z"/>
		<path d="M39,17H14c-0.553,0-1,0.448-1,1v28c0,0.552,0.447,1,1,1h25c0.553,0,1-0.448,1-1V18C40,17.448,39.553,17,39,17z M38,45H15
			V19h23V45z"/>
		<path d="M21.384,34.163l-0.865,5.045c-0.065,0.375,0.09,0.754,0.397,0.978c0.31,0.224,0.718,0.253,1.053,0.076L26.5,37.88
			l4.531,2.382c0.146,0.077,0.306,0.115,0.465,0.115c0.207,0,0.414-0.064,0.588-0.191c0.308-0.224,0.462-0.603,0.397-0.978
			l-0.865-5.045l3.666-3.573c0.272-0.266,0.37-0.663,0.253-1.025c-0.118-0.362-0.431-0.626-0.808-0.681l-5.065-0.736l-2.266-4.59
			c-0.336-0.683-1.457-0.683-1.793,0l-2.266,4.59l-5.065,0.736c-0.377,0.055-0.69,0.319-0.808,0.681
			c-0.117,0.362-0.019,0.759,0.253,1.025L21.384,34.163z M24.146,30.051c0.326-0.047,0.607-0.252,0.753-0.547l1.602-3.245
			l1.602,3.245c0.146,0.295,0.427,0.5,0.753,0.547l3.581,0.521l-2.592,2.525c-0.235,0.23-0.343,0.561-0.287,0.885l0.611,3.566
			l-3.203-1.684c-0.146-0.077-0.305-0.115-0.465-0.115s-0.319,0.038-0.465,0.115l-3.203,1.684l0.611-3.566
			c0.056-0.324-0.052-0.655-0.287-0.885l-2.592-2.525L24.146,30.051z"/>
	</g>
</g>
<g>
</g>
<g>
</g>
<g>
</g>
<g>
</g>
<g>
</g>
<g>
</g>
<g>
</g>
<g>
</g>
<g>
</g>
<g>
</g>
<g>
</g>
<g>
</g>
<g>
</g>
<g>
</g>
<g>
</g>
</svg>
