<?xml version="1.0" encoding="iso-8859-1"?>
<!-- Generator: Adobe Illustrator 19.0.0, SVG Export Plug-In . SVG Version: 6.00 Build 0)  -->
<svg version="1.1" id="Capa_1" xmlns="http://www.w3.org/2000/svg" xmlns:xlink="http://www.w3.org/1999/xlink" x="0px" y="0px"
	 viewBox="0 0 53 53" style="enable-background:new 0 0 53 53;" xml:space="preserve">
<g>
	<g>
		<path d="M45.707,10.074l-9.794-9.782C35.725,0.105,35.471,0,35.206,0H8C7.448,0,7,0.447,7,1v51c0,0.553,0.448,1,1,1h37
			c0.552,0,1-0.447,1-1V10.782C46,10.517,45.895,10.263,45.707,10.074z M42.586,10H36V3.414L42.586,10z M9,51V2h25v9
			c0,0.553,0.448,1,1,1h9v39H9z"/>
		<path d="M39,17H14c-0.552,0-1,0.447-1,1v28c0,0.553,0.448,1,1,1h25c0.552,0,1-0.447,1-1V18C40,17.447,39.552,17,39,17z M38,45H15
			V19h23V45z"/>
		<path d="M26.447,41.456c0.031,0,0.06,0,0.09,0c2.788,0,5.763-2.038,7.592-5.206c1.168-2.024,1.724-4.255,1.564-6.283
			c-0.171-2.166-1.127-3.856-2.693-4.761c-1.869-1.08-4.258-0.838-6.5,0.626c-2.243-1.464-4.631-1.706-6.5-0.626
			c-1.566,0.904-2.522,2.595-2.693,4.761c-0.16,2.028,0.396,4.259,1.564,6.283C20.7,39.418,23.675,41.456,26.447,41.456z M21,26.938
			c1.299-0.751,3.173-0.399,4.894,0.912c0.358,0.273,0.854,0.273,1.213,0c1.72-1.312,3.595-1.664,4.894-0.912
			c0.979,0.565,1.582,1.696,1.699,3.185c0.128,1.629-0.334,3.449-1.302,5.126c-1.455,2.521-3.806,4.206-5.875,4.206
			c-0.01,0-0.02,0-0.03,0c-2.049,0.016-4.427-1.675-5.889-4.206c-0.968-1.677-1.431-3.497-1.303-5.126
			C19.418,28.635,20.021,27.503,21,26.938z"/>
	</g>
</g>
<g>
</g>
<g>
</g>
<g>
</g>
<g>
</g>
<g>
</g>
<g>
</g>
<g>
</g>
<g>
</g>
<g>
</g>
<g>
</g>
<g>
</g>
<g>
</g>
<g>
</g>
<g>
</g>
<g>
</g>
</svg>
