<?xml version="1.0" encoding="iso-8859-1"?>
<!-- Generator: Adobe Illustrator 19.0.0, SVG Export Plug-In . SVG Version: 6.00 Build 0)  -->
<svg version="1.1" id="Capa_1" xmlns="http://www.w3.org/2000/svg" xmlns:xlink="http://www.w3.org/1999/xlink" x="0px" y="0px"
	 viewBox="0 0 48 48" style="enable-background:new 0 0 48 48;" xml:space="preserve">
<g>
	<g>
		<path d="M47.987,21.938c-0.006-0.091-0.023-0.178-0.053-0.264c-0.011-0.032-0.019-0.063-0.033-0.094
			c-0.048-0.104-0.109-0.202-0.193-0.285c-0.001-0.001-0.001-0.001-0.001-0.001L42,15.586V10c0-0.022-0.011-0.041-0.013-0.063
			c-0.006-0.088-0.023-0.173-0.051-0.257c-0.011-0.032-0.019-0.063-0.034-0.094c-0.049-0.106-0.11-0.207-0.196-0.293l-9-9
			c-0.086-0.086-0.187-0.148-0.294-0.196c-0.03-0.014-0.06-0.022-0.091-0.032c-0.085-0.03-0.172-0.047-0.263-0.052
			C32.039,0.01,32.021,0,32,0H7C6.448,0,6,0.448,6,1v14.586l-5.707,5.707c0,0-0.001,0.001-0.002,0.002
			c-0.084,0.084-0.144,0.182-0.192,0.285c-0.014,0.031-0.022,0.062-0.033,0.094c-0.03,0.086-0.048,0.173-0.053,0.264
			C0.011,21.96,0,21.978,0,22v19c0,0.552,0.448,1,1,1h5v5c0,0.552,0.448,1,1,1h34c0.552,0,1-0.448,1-1v-5h5c0.552,0,1-0.448,1-1V22
			C48,21.978,47.989,21.96,47.987,21.938z M44.586,21H42v-2.586L44.586,21z M38.586,9H33V3.414L38.586,9z M8,2h23v8
			c0,0.552,0.448,1,1,1h8v5v5H8v-5V2z M6,18.414V21H3.414L6,18.414z M40,46H8v-4h32V46z M46,40H2V23h5h34h5V40z"/>
		<path d="M28.233,26.695c-0.278-0.306-0.618-0.544-1.02-0.714c-0.402-0.17-0.864-0.255-1.385-0.255
			c-0.941,0-1.723,0.278-2.346,0.833c-0.623,0.555-1.009,1.383-1.156,2.482l1.921,0.187c0.079-0.555,0.249-0.98,0.51-1.275
			s0.589-0.442,0.986-0.442c0.442,0,0.771,0.164,0.986,0.493c0.215,0.329,0.323,0.731,0.323,1.207c0,0.408-0.102,0.819-0.306,1.232
			c-0.204,0.414-0.476,0.848-0.816,1.301l-3.485,4.403V38h6.494v-1.785H24.79l2.482-3.179c0.238-0.317,0.468-0.626,0.688-0.927
			c0.221-0.3,0.417-0.606,0.587-0.918c0.17-0.311,0.303-0.634,0.399-0.969c0.096-0.334,0.145-0.694,0.145-1.079
			c0-0.487-0.074-0.941-0.221-1.36C28.723,27.364,28.511,27.001,28.233,26.695z"/>
		<polygon points="36.979,29.33 34.905,29.33 33.715,32.152 32.508,29.33 30.417,29.33 32.458,33.461 30.213,38 32.321,38 
			33.699,34.838 35.042,38 37.167,38 34.957,33.461 		"/>
		<path d="M16.358,25.658c-0.771,0-1.465,0.161-2.083,0.484c-0.618,0.324-1.145,0.771-1.581,1.343
			c-0.436,0.573-0.774,1.244-1.012,2.015s-0.357,1.604-0.357,2.499c0,0.918,0.111,1.762,0.332,2.533s0.547,1.436,0.977,1.997
			c0.431,0.562,0.958,0.998,1.581,1.309c0.623,0.312,1.343,0.468,2.159,0.468c0.816,0,1.536-0.13,2.159-0.391
			c0.623-0.261,1.19-0.657,1.7-1.19l-0.663-0.986c-0.385,0.419-0.842,0.756-1.368,1.011c-0.527,0.256-1.097,0.383-1.708,0.383
			c-0.623,0-1.176-0.127-1.658-0.383c-0.482-0.255-0.89-0.611-1.224-1.071c-0.334-0.459-0.589-1.002-0.765-1.632
			c-0.176-0.629-0.264-1.317-0.264-2.065c0-0.703,0.088-1.368,0.264-1.998c0.176-0.629,0.428-1.181,0.757-1.657
			c0.329-0.476,0.725-0.853,1.19-1.131c0.465-0.277,0.986-0.416,1.564-0.416c0.555,0,1.051,0.102,1.487,0.306
			c0.436,0.204,0.808,0.496,1.114,0.875c0.306,0.38,0.538,0.839,0.697,1.377c0.159,0.539,0.238,1.142,0.238,1.811
			c0,0.839-0.122,1.513-0.365,2.023s-0.541,0.765-0.892,0.765c-0.193,0-0.323-0.068-0.391-0.204
			c-0.068-0.136-0.102-0.306-0.102-0.51c0-0.159,0.017-0.397,0.051-0.714s0.085-0.657,0.153-1.02l0.493-2.567h-1.224l-0.136,0.68
			h-0.051c-0.045-0.295-0.173-0.552-0.382-0.774c-0.21-0.221-0.501-0.331-0.875-0.331c-0.397,0-0.748,0.119-1.054,0.357
			c-0.306,0.238-0.561,0.547-0.765,0.926c-0.204,0.38-0.36,0.811-0.467,1.292c-0.108,0.482-0.161,0.967-0.161,1.454
			c0,0.374,0.04,0.728,0.119,1.062c0.079,0.335,0.196,0.627,0.348,0.876c0.153,0.249,0.343,0.448,0.569,0.595
			c0.227,0.147,0.487,0.221,0.782,0.221c0.215,0,0.405-0.037,0.57-0.111c0.164-0.073,0.312-0.167,0.442-0.28
			c0.13-0.113,0.241-0.238,0.331-0.374s0.164-0.272,0.221-0.408h0.034c0.011,0.397,0.128,0.691,0.348,0.884s0.513,0.289,0.875,0.289
			c0.408,0,0.776-0.105,1.105-0.315c0.329-0.209,0.609-0.501,0.842-0.875s0.411-0.816,0.535-1.326s0.187-1.06,0.187-1.649
			c0-1.745-0.411-3.091-1.233-4.038C18.979,26.131,17.832,25.658,16.358,25.658z M17.064,32.033
			c-0.051,0.317-0.125,0.615-0.221,0.892c-0.096,0.278-0.221,0.516-0.374,0.714c-0.153,0.199-0.331,0.298-0.535,0.298
			c-0.306,0-0.524-0.13-0.655-0.391s-0.196-0.589-0.196-0.986c0-0.317,0.028-0.64,0.085-0.969c0.057-0.329,0.139-0.623,0.247-0.884
			s0.241-0.473,0.399-0.638c0.159-0.164,0.34-0.246,0.544-0.246c0.306,0,0.513,0.136,0.621,0.408
			c0.108,0.272,0.162,0.595,0.162,0.969C17.14,31.438,17.115,31.716,17.064,32.033z"/>
	</g>
</g>
<g>
</g>
<g>
</g>
<g>
</g>
<g>
</g>
<g>
</g>
<g>
</g>
<g>
</g>
<g>
</g>
<g>
</g>
<g>
</g>
<g>
</g>
<g>
</g>
<g>
</g>
<g>
</g>
<g>
</g>
</svg>
