<?xml version="1.0" encoding="iso-8859-1"?>
<!-- Generator: Adobe Illustrator 19.0.0, SVG Export Plug-In . SVG Version: 6.00 Build 0)  -->
<svg version="1.1" id="Capa_1" xmlns="http://www.w3.org/2000/svg" xmlns:xlink="http://www.w3.org/1999/xlink" x="0px" y="0px"
	 viewBox="0 0 53 53" style="enable-background:new 0 0 53 53;" xml:space="preserve">
<g>
	<g>
		<path d="M20,24V5.412c0-0.269-0.108-0.526-0.3-0.714l-4.5-4.412C15.013,0.102,14.762,0,14.5,0H2C1.448,0,1,0.447,1,1v23
			c0,0.553,0.447,1,1,1h17C19.553,25,20,24.553,20,24z M18,23H3V2h11.092L18,5.832V23z"/>
		<path d="M24.201,28.286C24.013,28.103,23.762,28,23.5,28H11c-0.553,0-1,0.447-1,1v23c0,0.553,0.447,1,1,1h17c0.553,0,1-0.447,1-1
			V33.412c0-0.269-0.108-0.526-0.3-0.714L24.201,28.286z M27,51H12V30h11.092L27,33.832V51z"/>
		<path d="M25,25h17c0.553,0,1-0.447,1-1V5.412c0-0.269-0.108-0.526-0.3-0.714l-4.5-4.412C38.013,0.102,37.762,0,37.5,0H25
			c-0.553,0-1,0.447-1,1v23C24,24.553,24.448,25,25,25z M26,2h11.092L41,5.832V23H26V2z"/>
		<path d="M51.7,32.698l-4.5-4.412C47.012,28.103,46.761,28,46.5,28H34c-0.553,0-1,0.447-1,1v23c0,0.553,0.447,1,1,1h17
			c0.553,0,1-0.447,1-1V33.412C52,33.144,51.891,32.886,51.7,32.698z M50,51H35V30h11.092L50,33.832V51z"/>
	</g>
</g>
<g>
</g>
<g>
</g>
<g>
</g>
<g>
</g>
<g>
</g>
<g>
</g>
<g>
</g>
<g>
</g>
<g>
</g>
<g>
</g>
<g>
</g>
<g>
</g>
<g>
</g>
<g>
</g>
<g>
</g>
</svg>
