<?xml version="1.0" encoding="iso-8859-1"?>
<!-- Generator: Adobe Illustrator 19.0.0, SVG Export Plug-In . SVG Version: 6.00 Build 0)  -->
<svg version="1.1" id="Capa_1" xmlns="http://www.w3.org/2000/svg" xmlns:xlink="http://www.w3.org/1999/xlink" x="0px" y="0px"
	 viewBox="0 0 53 53" style="enable-background:new 0 0 53 53;" xml:space="preserve">
<g>
	<g>
		<path d="M45.707,10.074l-9.794-9.782C35.725,0.105,35.471,0,35.206,0H8C7.448,0,7,0.447,7,1v51c0,0.553,0.448,1,1,1h37
			c0.552,0,1-0.447,1-1V10.782C46,10.517,45.895,10.263,45.707,10.074z M42.586,10H36V3.414L42.586,10z M9,51V2h25v9
			c0,0.553,0.448,1,1,1h9v39H9z"/>
		<path d="M39,17H14c-0.552,0-1,0.447-1,1v28c0,0.553,0.448,1,1,1h25c0.552,0,1-0.447,1-1V18C40,17.447,39.552,17,39,17z M38,45H15
			V19h23V45z"/>
		<path d="M20,41h13c0.552,0,1-0.447,1-1v-9c0-0.553-0.448-1-1-1h-0.025c-0.257-3.351-3.059-6-6.475-6s-6.218,2.649-6.475,6H20
			c-0.552,0-1,0.447-1,1v9C19,40.553,19.448,41,20,41z M32,39H21v-7h11V39z M26.5,26c2.31,0,4.197,1.756,4.45,4h-8.899
			C22.303,27.756,24.19,26,26.5,26z"/>
	</g>
</g>
<g>
</g>
<g>
</g>
<g>
</g>
<g>
</g>
<g>
</g>
<g>
</g>
<g>
</g>
<g>
</g>
<g>
</g>
<g>
</g>
<g>
</g>
<g>
</g>
<g>
</g>
<g>
</g>
<g>
</g>
</svg>
