<?xml version="1.0" encoding="iso-8859-1"?>
<!-- Generator: Adobe Illustrator 19.0.0, SVG Export Plug-In . SVG Version: 6.00 Build 0)  -->
<svg version="1.1" id="Capa_1" xmlns="http://www.w3.org/2000/svg" xmlns:xlink="http://www.w3.org/1999/xlink" x="0px" y="0px"
	 viewBox="0 0 53 53" style="enable-background:new 0 0 53 53;" xml:space="preserve">
<g>
	<g>
		<path d="M45.707,10.074l-9.794-9.782C35.726,0.105,35.471,0,35.206,0H8C7.447,0,7,0.447,7,1v51c0,0.553,0.447,1,1,1h37
			c0.553,0,1-0.447,1-1V10.782C46,10.517,45.895,10.263,45.707,10.074z M42.586,10H36V3.414L42.586,10z M9,51V2h25v9
			c0,0.553,0.447,1,1,1h9v39H9z"/>
		<path d="M32,23L32,23c0-2.758-2.243-5-5-5s-5,2.242-5,4.999V23h-3h-4v2h3v20c0,0.553,0.447,1,1,1h16c0.553,0,1-0.447,1-1V25h3v-2
			h-4H32z M24,22.999C24,21.346,25.346,20,27,20s3,1.346,3,2.999V23L24,22.999L24,22.999z M34,44H20V25h2v15c0,0.553,0.447,1,1,1
			s1-0.447,1-1V25h6v15c0,0.553,0.447,1,1,1s1-0.447,1-1V25h2V44z"/>
	</g>
</g>
<g>
</g>
<g>
</g>
<g>
</g>
<g>
</g>
<g>
</g>
<g>
</g>
<g>
</g>
<g>
</g>
<g>
</g>
<g>
</g>
<g>
</g>
<g>
</g>
<g>
</g>
<g>
</g>
<g>
</g>
</svg>
