<?xml version="1.0" encoding="iso-8859-1"?>
<!-- Generator: Adobe Illustrator 19.0.0, SVG Export Plug-In . SVG Version: 6.00 Build 0)  -->
<svg version="1.1" id="Capa_1" xmlns="http://www.w3.org/2000/svg" xmlns:xlink="http://www.w3.org/1999/xlink" x="0px" y="0px"
	 viewBox="0 0 53 53" style="enable-background:new 0 0 53 53;" xml:space="preserve">
<g>
	<g>
		<path d="M45.707,10.074l-9.794-9.782C35.726,0.105,35.471,0,35.206,0H8C7.447,0,7,0.447,7,1v51c0,0.553,0.447,1,1,1h37
			c0.553,0,1-0.447,1-1V10.782C46,10.517,45.895,10.263,45.707,10.074z M42.586,10H36V3.414L42.586,10z M9,51V2h25v9
			c0,0.553,0.447,1,1,1h9v39H9z"/>
		<path d="M25,22H12v2h12v19c0,0.381,0.217,0.729,0.559,0.897c0.342,0.167,0.75,0.127,1.051-0.104l5.891-4.531l5.891,4.531
			C37.568,43.93,37.783,44,38,44c0.15,0,0.302-0.034,0.441-0.103C38.783,43.729,39,43.381,39,43V24h1v-2h-2H25z M37,40.969
			l-4.891-3.762C31.93,37.069,31.715,37,31.5,37s-0.43,0.069-0.609,0.207L26,40.969V24h11V40.969z"/>
	</g>
</g>
<g>
</g>
<g>
</g>
<g>
</g>
<g>
</g>
<g>
</g>
<g>
</g>
<g>
</g>
<g>
</g>
<g>
</g>
<g>
</g>
<g>
</g>
<g>
</g>
<g>
</g>
<g>
</g>
<g>
</g>
</svg>
