<?xml version="1.0" encoding="iso-8859-1"?>
<!-- Generator: Adobe Illustrator 19.0.0, SVG Export Plug-In . SVG Version: 6.00 Build 0)  -->
<svg version="1.1" id="Capa_1" xmlns="http://www.w3.org/2000/svg" xmlns:xlink="http://www.w3.org/1999/xlink" x="0px" y="0px"
	 viewBox="0 0 48 48" style="enable-background:new 0 0 48 48;" xml:space="preserve">
<g>
	<g>
		<path d="M47.988,21.94c-0.006-0.091-0.023-0.179-0.054-0.266c-0.011-0.032-0.019-0.063-0.033-0.094
			c-0.048-0.103-0.108-0.199-0.191-0.283c-0.001-0.002-0.002-0.003-0.004-0.005L42,15.586V10c0-0.021-0.011-0.04-0.012-0.061
			c-0.006-0.089-0.023-0.175-0.052-0.259c-0.011-0.032-0.019-0.062-0.033-0.093c-0.049-0.106-0.11-0.207-0.196-0.293l-9-9
			c-0.085-0.085-0.186-0.147-0.292-0.195c-0.032-0.015-0.065-0.024-0.098-0.035c-0.082-0.028-0.165-0.044-0.251-0.05
			C32.043,0.012,32.023,0,32,0H7C6.447,0,6,0.448,6,1v14.586l-5.706,5.706c-0.002,0.002-0.002,0.003-0.004,0.005
			c-0.083,0.083-0.143,0.18-0.191,0.283c-0.014,0.03-0.022,0.062-0.033,0.094c-0.03,0.086-0.048,0.174-0.054,0.266
			C0.011,21.961,0,21.979,0,22v19c0,0.552,0.447,1,1,1h5v5c0,0.552,0.447,1,1,1h34c0.553,0,1-0.448,1-1v-5h5c0.553,0,1-0.448,1-1V22
			C48,21.979,47.989,21.961,47.988,21.94z M44.586,21H42v-2.586L44.586,21z M38.586,9H33V3.414L38.586,9z M8,2h23v8
			c0,0.552,0.447,1,1,1h8v5v5H8v-5V2z M6,18.414V21H3.414L6,18.414z M40,46H8v-4h32V46z M46,40H2V23h5h34h5V40z"/>
		<path d="M25.454,25.964L22.462,38h2.04l0.612-2.55h3.162L28.87,38h2.125l-2.941-12.036H25.454z M25.368,33.852l1.309-5.967h0.068
			l1.275,5.967H25.368z"/>
		<polygon points="9.865,38 11.922,38 11.922,32.832 14.998,32.832 14.998,31.081 11.905,31.081 11.905,27.8 15.253,27.8 
			15.253,25.964 9.865,25.964 		"/>
		<polygon points="19.01,25.964 16.954,25.964 16.954,38 22.326,38 22.326,36.113 19.01,36.113 		"/>
		<path d="M34.345,28.854c0.204-0.397,0.459-0.711,0.765-0.944c0.306-0.232,0.663-0.348,1.071-0.348
			c0.737,0,1.337,0.334,1.802,1.003l1.173-1.428c-0.329-0.476-0.754-0.841-1.275-1.097c-0.521-0.255-1.128-0.382-1.819-0.382
			c-0.669,0-1.278,0.156-1.827,0.467c-0.55,0.312-1.017,0.748-1.403,1.309c-0.385,0.562-0.683,1.23-0.892,2.006
			c-0.21,0.777-0.315,1.624-0.315,2.542c0,0.918,0.105,1.762,0.315,2.533c0.21,0.771,0.504,1.436,0.884,1.997
			c0.38,0.562,0.844,1.001,1.394,1.318s1.165,0.476,1.845,0.476c0.748,0,1.368-0.147,1.861-0.442
			c0.493-0.295,0.898-0.68,1.215-1.156l-1.173-1.377c-0.193,0.295-0.433,0.544-0.722,0.748s-0.632,0.306-1.028,0.306
			c-0.419,0-0.785-0.116-1.097-0.349c-0.312-0.232-0.569-0.546-0.773-0.943s-0.357-0.864-0.459-1.403
			c-0.102-0.538-0.153-1.107-0.153-1.708c0-0.612,0.051-1.187,0.153-1.726C33.987,29.718,34.14,29.251,34.345,28.854z"/>
	</g>
</g>
<g>
</g>
<g>
</g>
<g>
</g>
<g>
</g>
<g>
</g>
<g>
</g>
<g>
</g>
<g>
</g>
<g>
</g>
<g>
</g>
<g>
</g>
<g>
</g>
<g>
</g>
<g>
</g>
<g>
</g>
</svg>
