<?xml version="1.0" encoding="iso-8859-1"?>
<!-- Generator: Adobe Illustrator 19.0.0, SVG Export Plug-In . SVG Version: 6.00 Build 0)  -->
<svg version="1.1" id="Capa_1" xmlns="http://www.w3.org/2000/svg" xmlns:xlink="http://www.w3.org/1999/xlink" x="0px" y="0px"
	 viewBox="0 0 54 54" style="enable-background:new 0 0 54 54;" xml:space="preserve">
<g>
	<g>
		<path d="M53,10.5H23.535l-3.703-5.555C19.646,4.667,19.334,4.5,19,4.5H1c-0.552,0-1,0.447-1,1v6v4v29.003
			C0,47.259,2.24,49.5,4.994,49.5h44.012C51.76,49.5,54,47.259,54,44.503V15.5v-4C54,10.947,53.552,10.5,53,10.5z M52,14.5H2v-2h21
			h29V14.5z M2,6.5h16.465l2.667,4H2V6.5z M52,44.503c0,1.652-1.343,2.997-2.994,2.997H4.994C3.343,47.5,2,46.155,2,44.503V16.5h50
			V44.503z"/>
		<path d="M11,43.5h1h10h1h14h6c0.552,0,1-0.447,1-1v-21c0-0.553-0.448-1-1-1H11c-0.552,0-1,0.447-1,1v21
			C10,43.053,10.448,43.5,11,43.5z M13.559,41.5l3.941-8.6l3.941,8.6H13.559z M24.308,41.5l5.192-5.538l5.192,5.538H24.308z
			 M42,22.5v19h-4.567l-7.203-7.684c-0.378-0.404-1.081-0.404-1.459,0l-5.81,6.197l-4.552-9.931
			C18.246,29.728,17.891,29.5,17.5,29.5s-0.746,0.228-0.909,0.583L12,40.099V22.5H42z"/>
		<path d="M34.5,31.5c1.93,0,3.5-1.57,3.5-3.5s-1.57-3.5-3.5-3.5S31,26.07,31,28S32.57,31.5,34.5,31.5z M34.5,26.5
			c0.827,0,1.5,0.673,1.5,1.5s-0.673,1.5-1.5,1.5S33,28.827,33,28S33.673,26.5,34.5,26.5z"/>
	</g>
</g>
<g>
</g>
<g>
</g>
<g>
</g>
<g>
</g>
<g>
</g>
<g>
</g>
<g>
</g>
<g>
</g>
<g>
</g>
<g>
</g>
<g>
</g>
<g>
</g>
<g>
</g>
<g>
</g>
<g>
</g>
</svg>
