<?xml version="1.0" encoding="iso-8859-1"?>
<!-- Generator: Adobe Illustrator 19.0.0, SVG Export Plug-In . SVG Version: 6.00 Build 0)  -->
<svg version="1.1" id="Capa_1" xmlns="http://www.w3.org/2000/svg" xmlns:xlink="http://www.w3.org/1999/xlink" x="0px" y="0px"
	 viewBox="0 0 54 54" style="enable-background:new 0 0 54 54;" xml:space="preserve">
<g>
	<g>
		<path d="M1,42.072c-0.552,0-1,0.447-1,1v1c0,0.553,0.448,1,1,1s1-0.447,1-1v-1C2,42.52,1.552,42.072,1,42.072z"/>
		<path d="M16.288,47.5h-1c-0.552,0-1,0.447-1,1s0.448,1,1,1h1c0.552,0,1-0.447,1-1S16.84,47.5,16.288,47.5z"/>
		<path d="M22.288,47.5h-1c-0.552,0-1,0.447-1,1s0.448,1,1,1h1c0.552,0,1-0.447,1-1S22.84,47.5,22.288,47.5z"/>
		<path d="M4.467,47.454c-0.247-0.044-0.486-0.119-0.71-0.222C3.255,47,2.662,47.221,2.431,47.723
			c-0.23,0.502-0.011,1.096,0.491,1.326c0.378,0.175,0.78,0.3,1.194,0.374c0.06,0.011,0.119,0.016,0.177,0.016
			c0.476,0,0.897-0.34,0.983-0.824C5.373,48.07,5.011,47.551,4.467,47.454z"/>
		<path d="M28.288,47.5h-1c-0.552,0-1,0.447-1,1s0.448,1,1,1h1c0.552,0,1-0.447,1-1S28.84,47.5,28.288,47.5z"/>
		<path d="M10.288,47.5h-1c-0.552,0-1,0.447-1,1s0.448,1,1,1h1c0.552,0,1-0.447,1-1S10.84,47.5,10.288,47.5z"/>
		<path d="M1,36.072c-0.552,0-1,0.447-1,1v1c0,0.553,0.448,1,1,1s1-0.447,1-1v-1C2,36.52,1.552,36.072,1,36.072z"/>
		<path d="M1,30.072c-0.552,0-1,0.447-1,1v1c0,0.553,0.448,1,1,1s1-0.447,1-1v-1C2,30.52,1.552,30.072,1,30.072z"/>
		<path d="M1,18.072c-0.552,0-1,0.447-1,1v1c0,0.553,0.448,1,1,1s1-0.447,1-1v-1C2,18.52,1.552,18.072,1,18.072z"/>
		<path d="M1,24.072c-0.552,0-1,0.447-1,1v1c0,0.553,0.448,1,1,1s1-0.447,1-1v-1C2,24.52,1.552,24.072,1,24.072z"/>
		<path d="M40.288,47.5h-1c-0.552,0-1,0.447-1,1s0.448,1,1,1h1c0.552,0,1-0.447,1-1S40.84,47.5,40.288,47.5z"/>
		<path d="M53,34.5c-0.552,0-1,0.447-1,1v1c0,0.553,0.448,1,1,1s1-0.447,1-1v-1C54,34.947,53.552,34.5,53,34.5z"/>
		<path d="M34.288,47.5h-1c-0.552,0-1,0.447-1,1s0.448,1,1,1h1c0.552,0,1-0.447,1-1S34.84,47.5,34.288,47.5z"/>
		<path d="M53,28.5c-0.552,0-1,0.447-1,1v1c0,0.553,0.448,1,1,1s1-0.447,1-1v-1C54,28.947,53.552,28.5,53,28.5z"/>
		<path d="M52,17.5v1c0,0.553,0.448,1,1,1s1-0.447,1-1v-1c0-0.553-0.448-1-1-1S52,16.947,52,17.5z"/>
		<path d="M53,22.5c-0.552,0-1,0.447-1,1v1c0,0.553,0.448,1,1,1s1-0.447,1-1v-1C54,22.947,53.552,22.5,53,22.5z"/>
		<path d="M46.288,47.5h-1c-0.552,0-1,0.447-1,1s0.448,1,1,1h1c0.552,0,1-0.447,1-1S46.84,47.5,46.288,47.5z"/>
		<path d="M53,40.5c-0.552,0-1,0.447-1,1v1c0,0.553,0.448,1,1,1s1-0.447,1-1v-1C54,40.947,53.552,40.5,53,40.5z"/>
		<path d="M51.197,46.546c-0.17,0.183-0.363,0.345-0.575,0.481c-0.464,0.3-0.597,0.918-0.297,1.383
			c0.191,0.296,0.513,0.457,0.841,0.457c0.186,0,0.374-0.052,0.542-0.16c0.351-0.227,0.672-0.495,0.955-0.8
			c0.376-0.404,0.353-1.037-0.051-1.413C52.206,46.119,51.574,46.141,51.197,46.546z"/>
		<path d="M54,15.5v-4c0-0.553-0.448-1-1-1H23.535l-3.703-5.555C19.646,4.667,19.334,4.5,19,4.5H1c-0.552,0-1,0.447-1,1v6v4
			c0,0.553,0.448,1,1,1h1h5h1h5h1h5h1h5h1h5h1h5h1h5h1h5h1h3C53.552,16.5,54,16.053,54,15.5z M2,6.5h16.465l2.667,4H2V6.5z M52,14.5
			h-2h-1h-5h-1h-5h-1h-5h-1h-5h-1h-5h-1h-5h-1H8H7H2v-2h21h29V14.5z"/>
	</g>
</g>
<g>
</g>
<g>
</g>
<g>
</g>
<g>
</g>
<g>
</g>
<g>
</g>
<g>
</g>
<g>
</g>
<g>
</g>
<g>
</g>
<g>
</g>
<g>
</g>
<g>
</g>
<g>
</g>
<g>
</g>
</svg>
