<?xml version="1.0" encoding="iso-8859-1"?>
<!-- Generator: Adobe Illustrator 19.0.0, SVG Export Plug-In . SVG Version: 6.00 Build 0)  -->
<svg version="1.1" id="Capa_1" xmlns="http://www.w3.org/2000/svg" xmlns:xlink="http://www.w3.org/1999/xlink" x="0px" y="0px"
	 viewBox="0 0 54 54" style="enable-background:new 0 0 54 54;" xml:space="preserve">
<g>
	<g>
		<path d="M53,10.5H23.535l-3.703-5.555C19.646,4.667,19.334,4.5,19,4.5H1c-0.553,0-1,0.447-1,1v6v4v29.003
			C0,47.259,2.24,49.5,4.994,49.5h44.012C51.76,49.5,54,47.259,54,44.503V15.5v-4C54,10.947,53.553,10.5,53,10.5z M52,14.5H2v-2h21
			h29V14.5z M2,6.5h16.465l2.667,4H2V6.5z M52,44.503c0,1.652-1.343,2.997-2.994,2.997H4.994C3.343,47.5,2,46.155,2,44.503V16.5h50
			V44.503z"/>
		<path d="M7.976,34.852c0.472,0.289,1.087,0.143,1.376-0.327l3.337-5.422l5.104,5.104c0.232,0.231,0.563,0.338,0.884,0.277
			c0.322-0.058,0.596-0.271,0.732-0.567l4.215-9.197l3.396,16.977c0.087,0.434,0.448,0.759,0.889,0.8
			C27.94,42.499,27.97,42.5,28,42.5c0.406,0,0.775-0.246,0.929-0.629l4.12-10.3l1.037,2.335c0.134,0.301,0.407,0.517,0.731,0.577
			c0.323,0.057,0.656-0.043,0.89-0.276l6.083-6.083l2.846,4.88c0.279,0.477,0.893,0.637,1.368,0.36
			c0.477-0.278,0.638-0.891,0.36-1.368l-3.5-6c-0.156-0.268-0.429-0.448-0.736-0.488c-0.297-0.033-0.615,0.066-0.835,0.285
			l-5.971,5.971l-1.408-3.17c-0.163-0.367-0.557-0.571-0.933-0.594c-0.402,0.008-0.761,0.255-0.91,0.629l-3.75,9.376L24.98,21.304
			c-0.085-0.425-0.434-0.747-0.864-0.797c-0.44-0.053-0.846,0.183-1.025,0.576l-4.9,10.693l-4.983-4.983
			c-0.216-0.216-0.528-0.322-0.823-0.286c-0.305,0.036-0.575,0.208-0.735,0.469l-4,6.5C7.359,33.946,7.506,34.563,7.976,34.852z"/>
	</g>
</g>
<g>
</g>
<g>
</g>
<g>
</g>
<g>
</g>
<g>
</g>
<g>
</g>
<g>
</g>
<g>
</g>
<g>
</g>
<g>
</g>
<g>
</g>
<g>
</g>
<g>
</g>
<g>
</g>
<g>
</g>
</svg>
