<?xml version="1.0" encoding="iso-8859-1"?>
<!-- Generator: Adobe Illustrator 19.0.0, SVG Export Plug-In . SVG Version: 6.00 Build 0)  -->
<svg version="1.1" id="Capa_1" xmlns="http://www.w3.org/2000/svg" xmlns:xlink="http://www.w3.org/1999/xlink" x="0px" y="0px"
	 viewBox="0 0 54 54" style="enable-background:new 0 0 54 54;" xml:space="preserve">
<g>
	<path d="M53,10.5H23.535l-3.703-5.555C19.646,4.667,19.334,4.5,19,4.5H1c-0.553,0-1,0.447-1,1v6v4v29.003
		C0,47.259,2.24,49.5,4.994,49.5h44.012C51.76,49.5,54,47.259,54,44.503V15.5v-4C54,10.947,53.553,10.5,53,10.5z M52,14.5h-6H31H2
		v-2h21h29V14.5z M32,16.5h13v22l-5.7-7.6c-0.188-0.252-0.485-0.4-0.8-0.4s-0.611,0.148-0.8,0.4L32,38.5V16.5z M2,6.5h16.465
		l2.667,4H2V6.5z M52,44.503c0,1.652-1.343,2.997-2.994,2.997H4.994C3.343,47.5,2,46.155,2,44.503V16.5h28v25
		c0,0.431,0.275,0.813,0.684,0.948c0.411,0.14,0.859-0.004,1.116-0.349l6.7-8.933l6.7,8.933c0.192,0.257,0.491,0.4,0.8,0.4
		c0.105,0,0.212-0.017,0.316-0.052C46.725,42.313,47,41.931,47,41.5v-25h5V44.503z"/>
</g>
<g>
</g>
<g>
</g>
<g>
</g>
<g>
</g>
<g>
</g>
<g>
</g>
<g>
</g>
<g>
</g>
<g>
</g>
<g>
</g>
<g>
</g>
<g>
</g>
<g>
</g>
<g>
</g>
<g>
</g>
</svg>
