<?xml version="1.0" encoding="iso-8859-1"?>
<!-- Generator: Adobe Illustrator 19.0.0, SVG Export Plug-In . SVG Version: 6.00 Build 0)  -->
<svg version="1.1" id="Capa_1" xmlns="http://www.w3.org/2000/svg" xmlns:xlink="http://www.w3.org/1999/xlink" x="0px" y="0px"
	 viewBox="0 0 54 54" style="enable-background:new 0 0 54 54;" xml:space="preserve">
<g>
	<g>
		<path d="M53,10.5H23.535l-3.703-5.555C19.646,4.667,19.334,4.5,19,4.5H1c-0.552,0-1,0.447-1,1v6v4v29.003
			C0,47.259,2.24,49.5,4.994,49.5h44.012C51.76,49.5,54,47.259,54,44.503V15.5v-4C54,10.947,53.552,10.5,53,10.5z M52,14.5H2v-2h21
			h29V14.5z M2,6.5h16.465l2.667,4H2V6.5z M52,44.503c0,1.652-1.343,2.997-2.994,2.997H4.994C3.343,47.5,2,46.155,2,44.503V16.5h50
			V44.503z"/>
		<path d="M26.143,41.015C26.323,41.315,26.649,41.5,27,41.5s0.677-0.185,0.857-0.485l6-10c0.186-0.309,0.19-0.693,0.013-1.008
			C33.693,29.693,33.36,29.5,33,29.5h-3v-9c0-0.553-0.448-1-1-1h-4c-0.552,0-1,0.447-1,1v9h-3c-0.36,0-0.693,0.193-0.87,0.507
			c-0.178,0.315-0.173,0.699,0.013,1.008L26.143,41.015z M25,31.5c0.552,0,1-0.447,1-1v-9h2v9c0,0.553,0.448,1,1,1h2.234L27,38.557
			L22.766,31.5H25z"/>
		<rect x="16" y="42.5" width="22" height="2"/>
	</g>
</g>
<g>
</g>
<g>
</g>
<g>
</g>
<g>
</g>
<g>
</g>
<g>
</g>
<g>
</g>
<g>
</g>
<g>
</g>
<g>
</g>
<g>
</g>
<g>
</g>
<g>
</g>
<g>
</g>
<g>
</g>
</svg>
