<?xml version="1.0" encoding="iso-8859-1"?>
<!-- Generator: Adobe Illustrator 19.0.0, SVG Export Plug-In . SVG Version: 6.00 Build 0)  -->
<svg version="1.1" id="Capa_1" xmlns="http://www.w3.org/2000/svg" xmlns:xlink="http://www.w3.org/1999/xlink" x="0px" y="0px"
	 viewBox="0 0 54 54" style="enable-background:new 0 0 54 54;" xml:space="preserve">
<g>
	<g>
		<path d="M53,10.5H23.535l-3.703-5.555C19.646,4.667,19.334,4.5,19,4.5H1c-0.553,0-1,0.447-1,1v6v4v29.003
			C0,47.259,2.24,49.5,4.994,49.5h44.012C51.76,49.5,54,47.259,54,44.503V15.5v-4C54,10.947,53.553,10.5,53,10.5z M52,14.5H2v-2h21
			h29V14.5z M2,6.5h16.465l2.667,4H2V6.5z M52,44.503c0,1.652-1.343,2.997-2.994,2.997H4.994C3.343,47.5,2,46.155,2,44.503V16.5h50
			V44.503z"/>
		<path d="M15,44.5h26c0.553,0,1-0.447,1-1v-18c0-0.553-0.447-1-1-1H28v-3c0-0.553-0.447-1-1-1h-7c-0.553,0-1,0.447-1,1v3h-4
			c-0.553,0-1,0.447-1,1v18C14,44.053,14.447,44.5,15,44.5z M21,22.5h5v2h-5V22.5z M16,26.5h4h7h13v16H16V26.5z"/>
		<path d="M28,28.5c-3.309,0-6,2.691-6,6s2.691,6,6,6s6-2.691,6-6S31.309,28.5,28,28.5z M28,38.5c-2.206,0-4-1.794-4-4s1.794-4,4-4
			s4,1.794,4,4S30.206,38.5,28,38.5z"/>
		<path d="M28,31.5c-1.654,0-3,1.346-3,3s1.346,3,3,3s3-1.346,3-3S29.654,31.5,28,31.5z M28,35.5c-0.552,0-1-0.448-1-1s0.448-1,1-1
			s1,0.448,1,1S28.552,35.5,28,35.5z"/>
	</g>
</g>
<g>
</g>
<g>
</g>
<g>
</g>
<g>
</g>
<g>
</g>
<g>
</g>
<g>
</g>
<g>
</g>
<g>
</g>
<g>
</g>
<g>
</g>
<g>
</g>
<g>
</g>
<g>
</g>
<g>
</g>
</svg>
