<?xml version="1.0" encoding="iso-8859-1"?>
<!-- Generator: Adobe Illustrator 19.0.0, SVG Export Plug-In . SVG Version: 6.00 Build 0)  -->
<svg version="1.1" id="Capa_1" xmlns="http://www.w3.org/2000/svg" xmlns:xlink="http://www.w3.org/1999/xlink" x="0px" y="0px"
	 viewBox="0 0 54 54" style="enable-background:new 0 0 54 54;" xml:space="preserve">
<g>
	<g>
		<path d="M53,10.5H23.535l-3.703-5.555C19.646,4.667,19.334,4.5,19,4.5H1c-0.553,0-1,0.447-1,1v6v4v29.003
			C0,47.259,2.24,49.5,4.994,49.5h44.012C51.76,49.5,54,47.259,54,44.503V15.5v-4C54,10.947,53.553,10.5,53,10.5z M52,14.5H2v-2h21
			h29V14.5z M2,6.5h16.465l2.667,4H2V6.5z M52,44.503c0,1.652-1.343,2.997-2.994,2.997H4.994C3.343,47.5,2,46.155,2,44.503V16.5h50
			V44.503z"/>
		<path d="M14,42.5h10c0.553,0,1-0.447,1-1v-20c0-0.553-0.447-1-1-1H14c-0.553,0-1,0.447-1,1v20C13,42.053,13.447,42.5,14,42.5z
			 M15,22.5h8v18h-8V22.5z"/>
		<path d="M27,42.5h10c0.553,0,1-0.447,1-1v-20c0-0.553-0.447-1-1-1H27c-0.553,0-1,0.447-1,1v20C26,42.053,26.447,42.5,27,42.5z
			 M28,22.5h8v18h-8V22.5z"/>
		<polygon points="8,41.527 10,41.527 10,23.5 10,21.5 8,21.5 5,21.5 5,23.5 8,23.5 		"/>
		<polygon points="43,36.5 45,36.5 45,32.5 49,32.5 49,30.5 45,30.5 45,26.5 43,26.5 43,30.5 39,30.5 39,32.5 43,32.5 		"/>
	</g>
</g>
<g>
</g>
<g>
</g>
<g>
</g>
<g>
</g>
<g>
</g>
<g>
</g>
<g>
</g>
<g>
</g>
<g>
</g>
<g>
</g>
<g>
</g>
<g>
</g>
<g>
</g>
<g>
</g>
<g>
</g>
</svg>
