<?xml version="1.0" encoding="iso-8859-1"?>
<!-- Generator: Adobe Illustrator 19.0.0, SVG Export Plug-In . SVG Version: 6.00 Build 0)  -->
<svg version="1.1" id="Capa_1" xmlns="http://www.w3.org/2000/svg" xmlns:xlink="http://www.w3.org/1999/xlink" x="0px" y="0px"
	 viewBox="0 0 54 54" style="enable-background:new 0 0 54 54;" xml:space="preserve">
<g>
	<g>
		<path d="M53,10.5H23.535l-3.703-5.555C19.646,4.667,19.334,4.5,19,4.5H1c-0.552,0-1,0.447-1,1v6v4v29.003
			C0,47.259,2.24,49.5,4.994,49.5h44.012C51.76,49.5,54,47.259,54,44.503V15.5v-4C54,10.947,53.552,10.5,53,10.5z M52,14.5H2v-2h21
			h29V14.5z M2,6.5h16.465l2.667,4H2V6.5z M52,44.503c0,1.652-1.343,2.997-2.994,2.997H4.994C3.343,47.5,2,46.155,2,44.503V16.5h50
			V44.503z"/>
		<path d="M12,43.5h30c0.552,0,1-0.447,1-1c0-3.256-5.502-5.224-11.899-5.811C33.489,34.462,35,30.62,35,27.712
			c0-4.528-3.589-8.212-8-8.212s-8,3.684-8,8.212c0,2.909,1.511,6.75,3.899,8.977C16.502,37.276,11,39.244,11,42.5
			C11,43.053,11.448,43.5,12,43.5z M21,27.712c0-3.425,2.691-6.212,6-6.212s6,2.787,6,6.212c0,3.756-2.966,8.788-6,8.788
			S21,31.468,21,27.712z M27,38.5c6.904,0,11.79,1.546,13.413,3H13.587C15.21,40.046,20.096,38.5,27,38.5z"/>
	</g>
</g>
<g>
</g>
<g>
</g>
<g>
</g>
<g>
</g>
<g>
</g>
<g>
</g>
<g>
</g>
<g>
</g>
<g>
</g>
<g>
</g>
<g>
</g>
<g>
</g>
<g>
</g>
<g>
</g>
<g>
</g>
</svg>
