<?xml version="1.0" encoding="iso-8859-1"?>
<!-- Generator: Adobe Illustrator 19.0.0, SVG Export Plug-In . SVG Version: 6.00 Build 0)  -->
<svg version="1.1" id="Capa_1" xmlns="http://www.w3.org/2000/svg" xmlns:xlink="http://www.w3.org/1999/xlink" x="0px" y="0px"
	 viewBox="0 0 48 48" style="enable-background:new 0 0 48 48;" xml:space="preserve">
<g>
	<g>
		<path d="M47.987,21.938c-0.006-0.091-0.023-0.178-0.053-0.264c-0.011-0.032-0.019-0.063-0.033-0.094
			c-0.048-0.104-0.109-0.202-0.193-0.285c-0.001-0.001-0.001-0.001-0.001-0.001L42,15.586V10c0-0.022-0.011-0.041-0.013-0.063
			c-0.006-0.088-0.023-0.173-0.051-0.257c-0.011-0.032-0.019-0.063-0.034-0.094c-0.049-0.106-0.11-0.207-0.196-0.293l-9-9
			c-0.086-0.086-0.187-0.148-0.294-0.196c-0.03-0.014-0.06-0.022-0.091-0.032c-0.085-0.03-0.172-0.047-0.263-0.052
			C32.039,0.01,32.021,0,32,0H7C6.448,0,6,0.448,6,1v14.586l-5.707,5.707c0,0-0.001,0.001-0.002,0.002
			c-0.084,0.084-0.144,0.182-0.192,0.285c-0.014,0.031-0.022,0.062-0.033,0.094c-0.03,0.086-0.048,0.173-0.053,0.264
			C0.011,21.96,0,21.978,0,22v19c0,0.552,0.448,1,1,1h5v5c0,0.552,0.448,1,1,1h34c0.552,0,1-0.448,1-1v-5h5c0.552,0,1-0.448,1-1V22
			C48,21.978,47.989,21.96,47.987,21.938z M44.586,21H42v-2.586L44.586,21z M38.586,9H33V3.414L38.586,9z M8,2h23v8
			c0,0.552,0.448,1,1,1h8v5v5H8v-5V2z M6,18.414V21H3.414L6,18.414z M40,46H8v-4h32V46z M46,40H2V23h5h34h5V40z"/>
		<path d="M18.611,32.934h1.462v3.111c-0.136,0.102-0.315,0.184-0.535,0.246c-0.221,0.063-0.468,0.094-0.74,0.094
			c-0.431,0-0.802-0.113-1.114-0.34c-0.312-0.227-0.569-0.541-0.774-0.944c-0.204-0.402-0.357-0.872-0.459-1.411
			c-0.102-0.538-0.153-1.113-0.153-1.725c0-0.589,0.051-1.15,0.153-1.683s0.255-1,0.459-1.403c0.204-0.402,0.462-0.722,0.774-0.96
			c0.312-0.238,0.677-0.357,1.097-0.357c0.771,0,1.383,0.329,1.836,0.986l1.173-1.428c-0.329-0.465-0.754-0.824-1.275-1.08
			c-0.521-0.255-1.139-0.382-1.853-0.382c-0.68,0-1.292,0.156-1.836,0.467c-0.544,0.312-1.009,0.748-1.394,1.309
			c-0.385,0.562-0.68,1.227-0.884,1.998c-0.204,0.771-0.306,1.615-0.306,2.533c0,0.941,0.105,1.796,0.314,2.567
			s0.51,1.434,0.901,1.989s0.87,0.983,1.437,1.283c0.567,0.301,1.207,0.451,1.921,0.451c0.703,0,1.306-0.091,1.81-0.272
			c0.504-0.181,0.938-0.419,1.301-0.714v-6.103h-3.315V32.934z"/>
		<rect x="24.102" y="25.964" width="2.04" height="12.036"/>
		<polygon points="28.59,38 30.647,38 30.647,32.832 33.724,32.832 33.724,31.081 30.63,31.081 30.63,27.8 33.979,27.8 
			33.979,25.964 28.59,25.964 		"/>
	</g>
</g>
<g>
</g>
<g>
</g>
<g>
</g>
<g>
</g>
<g>
</g>
<g>
</g>
<g>
</g>
<g>
</g>
<g>
</g>
<g>
</g>
<g>
</g>
<g>
</g>
<g>
</g>
<g>
</g>
<g>
</g>
</svg>
