<?xml version="1.0" encoding="iso-8859-1"?>
<!-- Generator: Adobe Illustrator 19.0.0, SVG Export Plug-In . SVG Version: 6.00 Build 0)  -->
<svg version="1.1" id="Capa_1" xmlns="http://www.w3.org/2000/svg" xmlns:xlink="http://www.w3.org/1999/xlink" x="0px" y="0px"
	 viewBox="0 0 53 53" style="enable-background:new 0 0 53 53;" xml:space="preserve">
<g>
	<g>
		<path d="M45.707,10.075l-9.794-9.783C35.725,0.105,35.471,0,35.206,0H8C7.448,0,7,0.448,7,1v30v2v4v15c0,0.552,0.448,1,1,1h37
			c0.552,0,1-0.448,1-1V37V10.783C46,10.517,45.895,10.263,45.707,10.075z M42.586,10H36V3.414L42.586,10z M9,31V2h25v9
			c0,0.552,0.448,1,1,1h9v19h-5v2h5v3H9v-3h4v-2H9z M44,51H9V38h35V51z"/>
		<rect x="31" y="31" width="6" height="2"/>
		<rect x="15" y="31" width="6" height="2"/>
		<rect x="23" y="31" width="6" height="2"/>
	</g>
</g>
<g>
</g>
<g>
</g>
<g>
</g>
<g>
</g>
<g>
</g>
<g>
</g>
<g>
</g>
<g>
</g>
<g>
</g>
<g>
</g>
<g>
</g>
<g>
</g>
<g>
</g>
<g>
</g>
<g>
</g>
</svg>
