<?xml version="1.0" encoding="iso-8859-1"?>
<!-- Generator: Adobe Illustrator 19.0.0, SVG Export Plug-In . SVG Version: 6.00 Build 0)  -->
<svg version="1.1" id="Capa_1" xmlns="http://www.w3.org/2000/svg" xmlns:xlink="http://www.w3.org/1999/xlink" x="0px" y="0px"
	 viewBox="0 0 53 53" style="enable-background:new 0 0 53 53;" xml:space="preserve">
<g>
	<g>
		<path d="M45.707,10.074l-9.794-9.782C35.725,0.105,35.471,0,35.206,0H8C7.448,0,7,0.447,7,1v51c0,0.553,0.448,1,1,1h37
			c0.552,0,1-0.447,1-1V10.782C46,10.517,45.895,10.263,45.707,10.074z M42.586,10H36V3.414L42.586,10z M9,51V2h25v9
			c0,0.553,0.448,1,1,1h9v39H9z"/>
		<path d="M26.5,16C20.159,16,15,21.159,15,27.5c0,3.393,1.446,6.526,3.994,8.714l-1.417,3.401c-0.163,0.391-0.063,0.841,0.25,1.125
			C18.016,40.911,18.257,41,18.5,41c0.161,0,0.322-0.039,0.471-0.117l4.359-2.325C24.357,38.852,25.421,39,26.5,39
			C32.841,39,38,33.841,38,27.5S32.841,16,26.5,16z M26.5,37c-1.013,0-2.01-0.158-2.962-0.471c-0.259-0.085-0.542-0.06-0.782,0.067
			L20.5,37.8l0.629-1.51c0.176-0.423,0.043-0.91-0.323-1.185C18.387,33.291,17,30.52,17,27.5c0-5.238,4.262-9.5,9.5-9.5
			s9.5,4.262,9.5,9.5S31.738,37,26.5,37z"/>
		<circle cx="22" cy="27" r="2"/>
		<circle cx="27" cy="27" r="2"/>
		<circle cx="32" cy="27" r="2"/>
	</g>
</g>
<g>
</g>
<g>
</g>
<g>
</g>
<g>
</g>
<g>
</g>
<g>
</g>
<g>
</g>
<g>
</g>
<g>
</g>
<g>
</g>
<g>
</g>
<g>
</g>
<g>
</g>
<g>
</g>
<g>
</g>
</svg>
