<?xml version="1.0" encoding="iso-8859-1"?>
<!-- Generator: Adobe Illustrator 19.0.0, SVG Export Plug-In . SVG Version: 6.00 Build 0)  -->
<svg version="1.1" id="Capa_1" xmlns="http://www.w3.org/2000/svg" xmlns:xlink="http://www.w3.org/1999/xlink" x="0px" y="0px"
	 viewBox="0 0 48 48" style="enable-background:new 0 0 48 48;" xml:space="preserve">
<g>
	<g>
		<path d="M47.988,21.94c-0.006-0.091-0.023-0.179-0.054-0.266c-0.011-0.032-0.019-0.063-0.033-0.094
			c-0.048-0.103-0.108-0.199-0.191-0.283c-0.001-0.002-0.002-0.003-0.004-0.005L42,15.586V10c0-0.021-0.011-0.04-0.012-0.061
			c-0.006-0.089-0.023-0.175-0.052-0.259c-0.011-0.032-0.019-0.062-0.033-0.093c-0.049-0.106-0.11-0.207-0.196-0.293l-9-9
			c-0.086-0.086-0.186-0.147-0.292-0.196c-0.031-0.014-0.063-0.023-0.095-0.034c-0.083-0.028-0.168-0.045-0.256-0.051
			C32.042,0.011,32.022,0,32,0H7C6.447,0,6,0.448,6,1v14.586l-5.706,5.706c-0.002,0.002-0.002,0.003-0.004,0.005
			c-0.083,0.083-0.143,0.18-0.191,0.283c-0.014,0.03-0.022,0.062-0.033,0.094c-0.03,0.086-0.048,0.174-0.054,0.266
			C0.011,21.961,0,21.979,0,22v19c0,0.552,0.447,1,1,1h5v5c0,0.552,0.447,1,1,1h34c0.553,0,1-0.448,1-1v-5h5c0.553,0,1-0.448,1-1V22
			C48,21.979,47.989,21.961,47.988,21.94z M44.586,21H42v-2.586L44.586,21z M38.586,9H33V3.414L38.586,9z M8,2h23v8
			c0,0.552,0.447,1,1,1h8v5v5H8v-5V2z M6,18.414V21H3.414L6,18.414z M40,46H8v-4h32V46z M46,40H2V23h5h34h5V40z"/>
		<path d="M28.726,26.721c-0.323-0.278-0.688-0.474-1.097-0.587c-0.408-0.113-0.805-0.17-1.19-0.17h-3.332V38h2.006v-4.828h1.428
			c0.419,0,0.827-0.074,1.224-0.221c0.397-0.147,0.748-0.374,1.054-0.68c0.306-0.306,0.552-0.688,0.74-1.147
			c0.187-0.46,0.281-0.995,0.281-1.607c0-0.68-0.105-1.247-0.315-1.7C29.315,27.364,29.049,26.998,28.726,26.721z M27.442,31.005
			c-0.306,0.334-0.697,0.501-1.173,0.501h-1.156v-3.825h1.156c0.476,0,0.867,0.147,1.173,0.442c0.306,0.295,0.459,0.765,0.459,1.411
			C27.902,30.18,27.749,30.67,27.442,31.005z"/>
		<path d="M35.909,31.71v-0.051c0.555-0.147,0.986-0.476,1.292-0.986c0.306-0.51,0.459-1.105,0.459-1.785
			c0-0.499-0.085-0.943-0.255-1.334c-0.17-0.392-0.402-0.723-0.697-0.995c-0.295-0.272-0.635-0.479-1.02-0.62
			c-0.385-0.142-0.799-0.213-1.241-0.213c-0.329,0-0.657,0.045-0.986,0.136c-0.329,0.091-0.64,0.232-0.935,0.425
			s-0.561,0.442-0.799,0.748c-0.238,0.306-0.425,0.669-0.561,1.088l1.768,0.493c0.125-0.329,0.3-0.601,0.527-0.816
			c0.227-0.215,0.504-0.323,0.833-0.323c0.249,0,0.465,0.051,0.646,0.153s0.329,0.232,0.442,0.391
			c0.113,0.159,0.196,0.337,0.246,0.536c0.051,0.198,0.076,0.393,0.076,0.586c0,0.578-0.15,1.028-0.451,1.352
			c-0.3,0.323-0.706,0.484-1.215,0.484h-0.561v1.581h0.51c0.578,0,1.048,0.164,1.411,0.493c0.363,0.329,0.544,0.816,0.544,1.462
			c0,0.238-0.031,0.473-0.093,0.706c-0.062,0.232-0.161,0.441-0.298,0.629c-0.136,0.187-0.306,0.337-0.51,0.45
			c-0.204,0.113-0.448,0.17-0.731,0.17c-0.442,0-0.802-0.133-1.079-0.399c-0.278-0.267-0.479-0.615-0.604-1.046l-1.802,0.476
			c0.227,0.907,0.652,1.589,1.275,2.049c0.623,0.459,1.388,0.688,2.295,0.688c0.521,0,1-0.088,1.437-0.263
			c0.436-0.176,0.808-0.425,1.113-0.748c0.306-0.324,0.544-0.709,0.714-1.156c0.17-0.448,0.255-0.938,0.255-1.471
			c0-0.714-0.181-1.334-0.544-1.861C37.008,32.211,36.521,31.869,35.909,31.71z"/>
		<polygon points="15.542,34.77 15.474,34.77 13.163,25.964 10.425,25.964 10.425,38 12.278,38 12.245,28.752 12.295,28.752 
			14.658,38 16.257,38 18.67,28.752 18.722,28.752 18.688,38 20.677,38 20.677,25.964 17.803,25.964 		"/>
	</g>
</g>
<g>
</g>
<g>
</g>
<g>
</g>
<g>
</g>
<g>
</g>
<g>
</g>
<g>
</g>
<g>
</g>
<g>
</g>
<g>
</g>
<g>
</g>
<g>
</g>
<g>
</g>
<g>
</g>
<g>
</g>
</svg>
