<svg id="Capa_1" enable-background="new 0 0 443.297 443.297" height="512" viewBox="0 0 443.297 443.297" width="512" xmlns="http://www.w3.org/2000/svg"><path d="m440.832 172.203c-2.597-3.734-6.845-5.966-11.391-5.966h-41.559v-55.412c0-15.273-12.432-27.706-27.706-27.706h-146.646l-51.353-51.353c-2.597-2.597-6.115-4.058-9.794-4.058h-124.677c-15.274-.001-27.706 12.432-27.706 27.705v346.323c0 2.785.835 5.536 2.462 7.887 2.597 3.734 6.845 5.966 11.391 5.966h332.471c5.777 0 10.944-3.585 12.974-8.983l83.118-221.647c1.595-4.261 1-9.023-1.584-12.756zm-413.125-116.79h118.94l51.353 51.353c2.597 2.597 6.115 4.058 9.794 4.058h152.382v55.412h-263.204c-5.777 0-10.944 3.585-12.974 8.983l-56.291 150.11zm309.012 332.471h-302.87l72.728-193.941h302.87z"/></svg>