<?xml version="1.0" encoding="iso-8859-1"?>
<!-- Generator: Adobe Illustrator 19.0.0, SVG Export Plug-In . SVG Version: 6.00 Build 0)  -->
<svg version="1.1" id="Capa_1" xmlns="http://www.w3.org/2000/svg" xmlns:xlink="http://www.w3.org/1999/xlink" x="0px" y="0px"
	 viewBox="0 0 48 48" style="enable-background:new 0 0 48 48;" xml:space="preserve">
<g>
	<g>
		<path d="M47.988,21.94c-0.006-0.091-0.023-0.179-0.054-0.266c-0.011-0.032-0.019-0.063-0.033-0.094
			c-0.048-0.103-0.108-0.199-0.191-0.283c-0.001-0.002-0.002-0.003-0.004-0.005L42,15.586V10c0-0.021-0.011-0.04-0.012-0.061
			c-0.006-0.089-0.023-0.175-0.052-0.259c-0.011-0.032-0.019-0.062-0.033-0.093c-0.049-0.106-0.11-0.207-0.196-0.293l-9-9
			c-0.086-0.086-0.187-0.147-0.292-0.196c-0.031-0.014-0.063-0.023-0.096-0.034c-0.083-0.028-0.166-0.045-0.253-0.05
			C32.043,0.012,32.023,0,32,0H7C6.447,0,6,0.448,6,1v14.586l-5.706,5.706c-0.002,0.002-0.002,0.003-0.004,0.005
			c-0.083,0.083-0.143,0.18-0.191,0.283c-0.014,0.03-0.022,0.062-0.033,0.094c-0.03,0.086-0.048,0.174-0.054,0.266
			C0.011,21.961,0,21.979,0,22v19c0,0.552,0.447,1,1,1h5v5c0,0.552,0.447,1,1,1h34c0.553,0,1-0.448,1-1v-5h5c0.553,0,1-0.448,1-1V22
			C48,21.979,47.989,21.961,47.988,21.94z M44.586,21H42v-2.586L44.586,21z M38.586,9H33V3.414L38.586,9z M8,2h23v8
			c0,0.552,0.447,1,1,1h8v5v5H8v-5V2z M6,18.414V21H3.414L6,18.414z M40,46H8v-4h32V46z M46,40H2V23h5h34h5V40z"/>
		<path d="M23.668,27.392c-0.374-0.555-0.83-0.983-1.368-1.284c-0.538-0.3-1.142-0.45-1.81-0.45c-0.68,0-1.289,0.15-1.827,0.45
			c-0.538,0.301-0.994,0.729-1.368,1.284c-0.374,0.555-0.657,1.218-0.85,1.989s-0.289,1.632-0.289,2.584s0.099,1.816,0.298,2.592
			c0.198,0.777,0.485,1.443,0.858,1.998c0.374,0.555,0.827,0.986,1.36,1.292c0.533,0.306,1.139,0.459,1.819,0.459
			c0.669,0,1.272-0.153,1.81-0.459c0.538-0.306,0.994-0.737,1.368-1.292c0.374-0.555,0.66-1.221,0.858-1.998
			c0.198-0.776,0.298-1.64,0.298-2.592s-0.099-1.813-0.298-2.584S24.042,27.947,23.668,27.392z M22.58,33.69
			c-0.091,0.539-0.229,1.006-0.417,1.403s-0.419,0.708-0.697,0.935c-0.278,0.227-0.604,0.34-0.978,0.34s-0.7-0.113-0.978-0.34
			c-0.278-0.227-0.51-0.538-0.697-0.935s-0.326-0.864-0.417-1.403c-0.091-0.538-0.136-1.113-0.136-1.725
			c0-0.612,0.045-1.187,0.136-1.726c0.091-0.538,0.229-1.002,0.417-1.394c0.187-0.391,0.419-0.699,0.697-0.926
			c0.278-0.227,0.604-0.34,0.978-0.34c0.363,0,0.683,0.113,0.961,0.34c0.278,0.227,0.51,0.535,0.697,0.926
			c0.187,0.392,0.329,0.856,0.425,1.394c0.096,0.539,0.145,1.114,0.145,1.726C22.716,32.577,22.671,33.152,22.58,33.69z"/>
		<polygon points="24.96,27.698 27.221,27.698 27.221,38 29.227,38 29.227,27.698 31.488,27.698 31.488,25.964 24.96,25.964 		"/>
	</g>
</g>
<g>
</g>
<g>
</g>
<g>
</g>
<g>
</g>
<g>
</g>
<g>
</g>
<g>
</g>
<g>
</g>
<g>
</g>
<g>
</g>
<g>
</g>
<g>
</g>
<g>
</g>
<g>
</g>
<g>
</g>
</svg>
