<?xml version="1.0" encoding="iso-8859-1"?>
<!-- Generator: Adobe Illustrator 19.0.0, SVG Export Plug-In . SVG Version: 6.00 Build 0)  -->
<svg version="1.1" id="Capa_1" xmlns="http://www.w3.org/2000/svg" xmlns:xlink="http://www.w3.org/1999/xlink" x="0px" y="0px"
	 viewBox="0 0 53 53" style="enable-background:new 0 0 53 53;" xml:space="preserve">
<g>
	<g>
		<path d="M45.707,10.074l-9.794-9.782C35.725,0.105,35.471,0,35.206,0H8C7.448,0,7,0.447,7,1v51c0,0.553,0.448,1,1,1h37
			c0.552,0,1-0.447,1-1V10.782C46,10.517,45.895,10.263,45.707,10.074z M42.586,10H36V3.414L42.586,10z M9,51V2h25v9
			c0,0.553,0.448,1,1,1h9v39H9z"/>
		<path d="M26.5,16C19.056,16,13,22.056,13,29.5S19.056,43,26.5,43S40,36.944,40,29.5S33.944,16,26.5,16z M26.5,41
			C20.159,41,15,35.841,15,29.5S20.159,18,26.5,18S38,23.159,38,29.5S32.841,41,26.5,41z"/>
		<path d="M30.8,23.84c-0.428-0.295-0.958-0.496-1.591-0.602c-0.451-0.082-1.104-0.123-1.96-0.123h-4.86V36h1.705v-5.238h3.305
			c1.822,0,3.082-0.379,3.779-1.139c0.697-0.758,1.046-1.685,1.046-2.781c0-0.639-0.13-1.225-0.391-1.758S31.228,24.137,30.8,23.84z
			 M29.771,28.626c-0.463,0.41-1.245,0.615-2.347,0.615h-3.331v-4.605h3.296c0.773,0,1.304,0.038,1.591,0.114
			c0.445,0.123,0.804,0.377,1.077,0.76c0.272,0.385,0.409,0.846,0.409,1.385C30.466,27.639,30.234,28.216,29.771,28.626z"/>
	</g>
</g>
<g>
</g>
<g>
</g>
<g>
</g>
<g>
</g>
<g>
</g>
<g>
</g>
<g>
</g>
<g>
</g>
<g>
</g>
<g>
</g>
<g>
</g>
<g>
</g>
<g>
</g>
<g>
</g>
<g>
</g>
</svg>
