<?xml version="1.0" encoding="iso-8859-1"?>
<!-- Generator: Adobe Illustrator 19.0.0, SVG Export Plug-In . SVG Version: 6.00 Build 0)  -->
<svg version="1.1" id="Capa_1" xmlns="http://www.w3.org/2000/svg" xmlns:xlink="http://www.w3.org/1999/xlink" x="0px" y="0px"
	 viewBox="0 0 48 48" style="enable-background:new 0 0 48 48;" xml:space="preserve">
<g>
	<g>
		<path d="M47.987,21.938c-0.006-0.091-0.023-0.178-0.053-0.264c-0.011-0.032-0.019-0.063-0.033-0.094
			c-0.048-0.104-0.109-0.202-0.193-0.285c-0.001-0.001-0.001-0.001-0.001-0.001L42,15.586V10c0-0.022-0.011-0.041-0.013-0.063
			c-0.006-0.088-0.023-0.173-0.051-0.257c-0.011-0.032-0.019-0.063-0.034-0.094c-0.049-0.106-0.11-0.207-0.196-0.293l-9-9
			c-0.086-0.086-0.188-0.148-0.294-0.197c-0.03-0.014-0.059-0.022-0.09-0.032c-0.086-0.03-0.172-0.047-0.263-0.052
			C32.039,0.011,32.021,0,32,0H7C6.448,0,6,0.448,6,1v14.586l-5.707,5.707c0,0-0.001,0.001-0.002,0.002
			c-0.084,0.084-0.144,0.182-0.192,0.285c-0.014,0.031-0.022,0.062-0.033,0.094c-0.03,0.086-0.048,0.173-0.053,0.264
			C0.011,21.96,0,21.978,0,22v19c0,0.552,0.448,1,1,1h5v5c0,0.552,0.448,1,1,1h34c0.552,0,1-0.448,1-1v-5h5c0.552,0,1-0.448,1-1V22
			C48,21.978,47.989,21.96,47.987,21.938z M44.586,21H42v-2.586L44.586,21z M38.586,9H33V3.414L38.586,9z M8,2h23v8
			c0,0.552,0.448,1,1,1h8v5v5H8v-5V2z M6,18.414V21H3.414L6,18.414z M40,46H8v-4h32V46z M46,40H2V23h5h34h5V40z"/>
		<path d="M22.785,28.167c0.147-0.133,0.312-0.229,0.493-0.29c0.181-0.06,0.368-0.091,0.561-0.091c0.669,0,1.224,0.259,1.666,0.778
			l1.122-1.423c-0.329-0.375-0.734-0.659-1.215-0.852C24.929,26.096,24.382,26,23.771,26c-0.419,0-0.833,0.069-1.241,0.207
			c-0.408,0.138-0.774,0.35-1.097,0.637c-0.323,0.286-0.584,0.647-0.782,1.083s-0.298,0.957-0.298,1.563
			c0,0.485,0.065,0.901,0.195,1.249c0.13,0.347,0.306,0.65,0.527,0.91c0.221,0.259,0.476,0.482,0.765,0.669
			c0.289,0.188,0.598,0.359,0.927,0.513c0.521,0.254,0.952,0.529,1.292,0.827c0.34,0.298,0.51,0.7,0.51,1.208
			c0,0.518-0.142,0.92-0.425,1.207c-0.283,0.287-0.64,0.43-1.071,0.43c-0.385,0-0.762-0.088-1.131-0.265
			c-0.368-0.176-0.683-0.419-0.944-0.727l-1.105,1.455c0.34,0.386,0.793,0.706,1.36,0.96c0.567,0.253,1.184,0.38,1.853,0.38
			c0.465,0,0.907-0.077,1.326-0.232c0.419-0.154,0.785-0.383,1.097-0.686c0.312-0.303,0.561-0.675,0.748-1.116
			c0.187-0.442,0.281-0.949,0.281-1.522c0-0.496-0.079-0.926-0.238-1.29s-0.363-0.678-0.612-0.943s-0.527-0.491-0.833-0.678
			c-0.306-0.188-0.606-0.353-0.901-0.496c-0.499-0.243-0.901-0.499-1.207-0.77c-0.306-0.27-0.459-0.653-0.459-1.149
			c0-0.287,0.042-0.535,0.128-0.744C22.521,28.47,22.637,28.299,22.785,28.167z"/>
		<path d="M31.438,26.298h-3.026v11.71h3.009c1.553,0,2.728-0.51,3.527-1.53s1.199-2.456,1.199-4.308c0-1.853-0.4-3.295-1.199-4.326
			S32.979,26.298,31.438,26.298z M33.911,33.964c-0.13,0.513-0.314,0.94-0.553,1.282c-0.238,0.342-0.521,0.598-0.85,0.769
			c-0.329,0.171-0.686,0.257-1.071,0.257h-0.969v-8.238h0.969c0.385,0,0.742,0.086,1.071,0.257c0.329,0.171,0.612,0.427,0.85,0.769
			c0.238,0.342,0.422,0.772,0.553,1.29c0.13,0.518,0.195,1.125,0.195,1.82C34.106,32.853,34.041,33.451,33.911,33.964z"/>
		<path d="M17.982,27.034c-0.323-0.27-0.688-0.461-1.097-0.571s-0.805-0.165-1.19-0.165h-3.332v11.71h2.006v-4.697h1.428
			c0.419,0,0.827-0.072,1.224-0.215c0.397-0.144,0.748-0.364,1.054-0.662c0.306-0.298,0.552-0.67,0.74-1.116
			c0.187-0.447,0.281-0.968,0.281-1.563c0-0.662-0.105-1.213-0.315-1.654C18.571,27.66,18.305,27.304,17.982,27.034z M16.698,31.202
			c-0.306,0.325-0.697,0.488-1.173,0.488h-1.156v-3.722h1.156c0.476,0,0.867,0.144,1.173,0.43c0.306,0.287,0.459,0.745,0.459,1.373
			C17.157,30.4,17.004,30.877,16.698,31.202z"/>
	</g>
</g>
<g>
</g>
<g>
</g>
<g>
</g>
<g>
</g>
<g>
</g>
<g>
</g>
<g>
</g>
<g>
</g>
<g>
</g>
<g>
</g>
<g>
</g>
<g>
</g>
<g>
</g>
<g>
</g>
<g>
</g>
</svg>
