<?xml version="1.0" encoding="iso-8859-1"?>
<!-- Generator: Adobe Illustrator 19.0.0, SVG Export Plug-In . SVG Version: 6.00 Build 0)  -->
<svg version="1.1" id="Capa_1" xmlns="http://www.w3.org/2000/svg" xmlns:xlink="http://www.w3.org/1999/xlink" x="0px" y="0px"
	 viewBox="0 0 53 53" style="enable-background:new 0 0 53 53;" xml:space="preserve">
<g>
	<g>
		<path d="M45.707,10.074l-9.794-9.782C35.725,0.105,35.471,0,35.206,0H8C7.448,0,7,0.447,7,1v51c0,0.553,0.448,1,1,1h37
			c0.552,0,1-0.447,1-1V10.782C46,10.517,45.895,10.263,45.707,10.074z M42.586,10H36V3.414L42.586,10z M9,51V2h25v9
			c0,0.553,0.448,1,1,1h9v39H9z"/>
		<path d="M26.5,16C19.056,16,13,22.056,13,29.5S19.056,43,26.5,43S40,36.944,40,29.5S33.944,16,26.5,16z M26.5,41
			C20.159,41,15,35.841,15,29.5S20.159,18,26.5,18S38,23.159,38,29.5S32.841,41,26.5,41z"/>
		<path d="M29.114,30.779c-0.234-0.211-0.577-0.425-1.028-0.642c1.236-0.17,2.15-0.568,2.742-1.195s0.888-1.397,0.888-2.312
			c0-0.709-0.179-1.356-0.536-1.942s-0.835-0.994-1.433-1.226s-1.471-0.348-2.619-0.348h-5.713V36h1.705v-5.722h1.977
			c0.44,0,0.756,0.021,0.949,0.062c0.264,0.065,0.523,0.179,0.778,0.343s0.544,0.451,0.866,0.861s0.732,1.002,1.23,1.775L30.626,36
			h2.145l-2.241-3.507C30.084,31.808,29.612,31.236,29.114,30.779z M26.785,28.802H23.12v-4.263h4.078
			c0.955,0,1.654,0.196,2.096,0.589s0.664,0.894,0.664,1.503c0,0.416-0.114,0.802-0.343,1.156s-0.563,0.612-1.002,0.773
			S27.565,28.802,26.785,28.802z"/>
	</g>
</g>
<g>
</g>
<g>
</g>
<g>
</g>
<g>
</g>
<g>
</g>
<g>
</g>
<g>
</g>
<g>
</g>
<g>
</g>
<g>
</g>
<g>
</g>
<g>
</g>
<g>
</g>
<g>
</g>
<g>
</g>
</svg>
