<?xml version="1.0" encoding="iso-8859-1"?>
<!-- Generator: Adobe Illustrator 19.0.0, SVG Export Plug-In . SVG Version: 6.00 Build 0)  -->
<svg version="1.1" id="Capa_1" xmlns="http://www.w3.org/2000/svg" xmlns:xlink="http://www.w3.org/1999/xlink" x="0px" y="0px"
	 viewBox="0 0 48 48" style="enable-background:new 0 0 48 48;" xml:space="preserve">
<g>
	<g>
		<path d="M47.988,21.94c-0.006-0.091-0.023-0.179-0.054-0.266c-0.011-0.032-0.019-0.063-0.033-0.094
			c-0.048-0.103-0.108-0.199-0.191-0.283c-0.001-0.002-0.002-0.003-0.004-0.005L42,15.586V10c0-0.021-0.011-0.04-0.012-0.061
			c-0.006-0.089-0.023-0.175-0.052-0.259c-0.011-0.032-0.019-0.062-0.033-0.093c-0.049-0.106-0.11-0.207-0.196-0.293l-9-9
			c-0.085-0.085-0.186-0.146-0.291-0.195c-0.032-0.015-0.065-0.024-0.099-0.035c-0.081-0.027-0.164-0.044-0.249-0.05
			C32.044,0.012,32.023,0,32,0H7C6.447,0,6,0.448,6,1v14.586l-5.706,5.706c-0.002,0.002-0.002,0.003-0.004,0.005
			c-0.083,0.083-0.143,0.18-0.191,0.283c-0.014,0.03-0.022,0.062-0.033,0.094c-0.03,0.086-0.048,0.174-0.054,0.266
			C0.011,21.961,0,21.979,0,22v19c0,0.552,0.447,1,1,1h5v5c0,0.552,0.447,1,1,1h34c0.553,0,1-0.448,1-1v-5h5c0.553,0,1-0.448,1-1V22
			C48,21.979,47.989,21.961,47.988,21.94z M44.586,21H42v-2.586L44.586,21z M38.586,9H33V3.414L38.586,9z M8,2h23v8
			c0,0.552,0.447,1,1,1h8v5v5H8v-5V2z M6,18.414V21H3.414L6,18.414z M40,46H8v-4h32V46z M46,40H2V23h5h34h5V40z"/>
		<path d="M19.758,32.143c0.221-0.153,0.422-0.354,0.604-0.603c0.181-0.249,0.331-0.552,0.451-0.91
			c0.119-0.357,0.178-0.767,0.178-1.232c0-0.601-0.085-1.116-0.255-1.547c-0.17-0.431-0.405-0.788-0.705-1.071
			c-0.3-0.283-0.66-0.49-1.08-0.621c-0.419-0.13-0.878-0.195-1.377-0.195H14.14V38h1.972v-5.134h1.139L19.121,38h2.142l-2.159-5.542
			C19.319,32.401,19.538,32.297,19.758,32.143z M18.5,30.902c-0.323,0.312-0.734,0.468-1.233,0.468h-1.156v-3.706h1.156
			c0.204,0,0.408,0.028,0.612,0.085s0.388,0.153,0.552,0.289s0.298,0.323,0.399,0.561c0.102,0.238,0.153,0.538,0.153,0.901
			C18.985,30.123,18.823,30.591,18.5,30.902z"/>
		<polygon points="21.501,27.698 23.762,27.698 23.762,38 25.768,38 25.768,27.698 28.029,27.698 28.029,25.964 21.501,25.964 		"/>
		<polygon points="29.219,38 31.276,38 31.276,32.832 34.353,32.832 34.353,31.081 31.259,31.081 31.259,27.8 34.608,27.8 
			34.608,25.964 29.219,25.964 		"/>
	</g>
</g>
<g>
</g>
<g>
</g>
<g>
</g>
<g>
</g>
<g>
</g>
<g>
</g>
<g>
</g>
<g>
</g>
<g>
</g>
<g>
</g>
<g>
</g>
<g>
</g>
<g>
</g>
<g>
</g>
<g>
</g>
</svg>
