<?xml version="1.0" encoding="iso-8859-1"?>
<!-- Generator: Adobe Illustrator 19.0.0, SVG Export Plug-In . SVG Version: 6.00 Build 0)  -->
<svg version="1.1" id="Capa_1" xmlns="http://www.w3.org/2000/svg" xmlns:xlink="http://www.w3.org/1999/xlink" x="0px" y="0px"
	 viewBox="0 0 53 53" style="enable-background:new 0 0 53 53;" xml:space="preserve">
<g>
	<g>
		<path d="M45.707,10.075l-9.794-9.783C35.726,0.105,35.471,0,35.206,0H8C7.447,0,7,0.448,7,1v51c0,0.552,0.447,1,1,1h37
			c0.553,0,1-0.448,1-1V10.783C46,10.517,45.895,10.263,45.707,10.075z M42.586,10H36V3.414L42.586,10z M9,51V2h25v9
			c0,0.552,0.447,1,1,1h9v39H9z"/>
		<path d="M39,17H14c-0.553,0-1,0.448-1,1v28c0,0.552,0.447,1,1,1h25c0.553,0,1-0.448,1-1V18C40,17.448,39.553,17,39,17z M38,45H15
			V19h23V45z"/>
		<path d="M23.5,35c1.274,0,2.46-0.374,3.465-1.01l7.674,7.674l1.414-1.414l-7.576-7.576C29.426,31.543,30,30.088,30,28.5
			c0-3.584-2.916-6.5-6.5-6.5S17,24.916,17,28.5S19.916,35,23.5,35z M23.5,24c2.481,0,4.5,2.019,4.5,4.5S25.981,33,23.5,33
			S19,30.981,19,28.5S21.019,24,23.5,24z"/>
	</g>
</g>
<g>
</g>
<g>
</g>
<g>
</g>
<g>
</g>
<g>
</g>
<g>
</g>
<g>
</g>
<g>
</g>
<g>
</g>
<g>
</g>
<g>
</g>
<g>
</g>
<g>
</g>
<g>
</g>
<g>
</g>
</svg>
