<?xml version="1.0" encoding="iso-8859-1"?>
<!-- Generator: Adobe Illustrator 19.0.0, SVG Export Plug-In . SVG Version: 6.00 Build 0)  -->
<svg version="1.1" id="Capa_1" xmlns="http://www.w3.org/2000/svg" xmlns:xlink="http://www.w3.org/1999/xlink" x="0px" y="0px"
	 viewBox="0 0 53 53" style="enable-background:new 0 0 53 53;" xml:space="preserve">
<g>
	<g>
		<path d="M45.707,10.074l-9.794-9.782C35.726,0.105,35.471,0,35.206,0H8C7.447,0,7,0.447,7,1v51c0,0.553,0.447,1,1,1h37
			c0.553,0,1-0.447,1-1V10.782C46,10.517,45.895,10.263,45.707,10.074z M42.586,10H36V3.414L42.586,10z M9,51V2h25v9
			c0,0.553,0.447,1,1,1h9v39H9z"/>
		<path d="M26.5,16C19.056,16,13,22.056,13,29.5S19.056,43,26.5,43S40,36.944,40,29.5S33.944,16,26.5,16z M26.5,41
			C20.159,41,15,35.841,15,29.5S20.159,18,26.5,18S38,23.159,38,29.5S32.841,41,26.5,41z"/>
		<path d="M24.126,29.257c-0.404-0.213-1.028-0.419-1.872-0.618c-0.844-0.199-1.375-0.391-1.594-0.574
			c-0.172-0.145-0.258-0.318-0.258-0.521c0-0.223,0.092-0.4,0.275-0.533c0.285-0.207,0.68-0.31,1.184-0.31
			c0.488,0,0.854,0.097,1.099,0.29s0.403,0.511,0.478,0.952l1.734-0.076c-0.027-0.789-0.313-1.42-0.858-1.893
			s-1.356-0.709-2.435-0.709c-0.66,0-1.224,0.1-1.69,0.299s-0.824,0.489-1.072,0.87s-0.372,0.79-0.372,1.228
			c0,0.68,0.264,1.256,0.791,1.729c0.375,0.336,1.027,0.619,1.957,0.85c0.723,0.18,1.186,0.305,1.389,0.375
			c0.297,0.105,0.505,0.229,0.624,0.372s0.179,0.315,0.179,0.519c0,0.316-0.142,0.593-0.425,0.829s-0.704,0.354-1.263,0.354
			c-0.527,0-0.946-0.133-1.257-0.398c-0.311-0.266-0.517-0.682-0.618-1.248l-1.688,0.164c0.113,0.961,0.461,1.692,1.043,2.194
			s1.416,0.753,2.502,0.753c0.746,0,1.369-0.104,1.869-0.313s0.887-0.528,1.16-0.958s0.41-0.891,0.41-1.383
			c0-0.543-0.114-0.999-0.343-1.368S24.53,29.47,24.126,29.257z"/>
		<polygon points="31.008,31.27 29.449,25.41 26.854,25.41 26.854,34 28.465,34 28.465,27.238 30.164,34 31.834,34 33.539,27.238 
			33.539,34 35.15,34 35.15,25.41 32.549,25.41 		"/>
	</g>
</g>
<g>
</g>
<g>
</g>
<g>
</g>
<g>
</g>
<g>
</g>
<g>
</g>
<g>
</g>
<g>
</g>
<g>
</g>
<g>
</g>
<g>
</g>
<g>
</g>
<g>
</g>
<g>
</g>
<g>
</g>
</svg>
