<?xml version="1.0" encoding="iso-8859-1"?>
<!-- Generator: Adobe Illustrator 19.0.0, SVG Export Plug-In . SVG Version: 6.00 Build 0)  -->
<svg version="1.1" id="Capa_1" xmlns="http://www.w3.org/2000/svg" xmlns:xlink="http://www.w3.org/1999/xlink" x="0px" y="0px"
	 viewBox="0 0 469.333 469.333" style="enable-background:new 0 0 469.333 469.333;" xml:space="preserve">
<g>
	<g>
		<g>
			<path d="M426.667,85.333h-198.25l-39.542-39.542c-2-2-4.708-3.125-7.542-3.125H42.667C19.146,42.667,0,61.802,0,85.333V384
				c0,23.531,19.146,42.667,42.667,42.667h384c23.521,0,42.667-19.135,42.667-42.667V128
				C469.333,104.469,450.188,85.333,426.667,85.333z M448,384c0,11.76-9.563,21.333-21.333,21.333h-384
				c-11.771,0-21.333-9.573-21.333-21.333V85.333C21.333,73.573,30.896,64,42.667,64h134.25l39.542,39.542
				c2,2,4.708,3.125,7.542,3.125h202.667C438.438,106.667,448,116.24,448,128V384z"/>
			<path d="M298.667,234.667c23.521,0,42.667-19.135,42.667-42.667s-19.146-42.667-42.667-42.667
				C275.146,149.333,256,168.469,256,192c0,3.063,0.355,6.039,0.971,8.921l-54.309,27.154c-7.828-8.957-19.197-14.741-31.996-14.741
				C147.146,213.333,128,232.469,128,256s19.146,42.667,42.667,42.667c12.797,0,24.163-5.78,31.991-14.734l54.314,27.148
				C256.355,313.962,256,316.937,256,320c0,23.531,19.146,42.667,42.667,42.667c23.521,0,42.667-19.135,42.667-42.667
				c0-23.531-19.146-42.667-42.667-42.667c-12.799,0-24.169,5.784-31.997,14.742l-54.31-27.147c0.617-2.884,0.974-5.862,0.974-8.928
				c0-3.063-0.355-6.039-0.971-8.921l54.309-27.154C274.499,228.883,285.867,234.667,298.667,234.667z M298.667,170.667
				C310.437,170.667,320,180.24,320,192c0,11.76-9.563,21.333-21.333,21.333S277.333,203.76,277.333,192
				C277.333,180.24,286.896,170.667,298.667,170.667z M170.667,277.333c-11.771,0-21.333-9.573-21.333-21.333
				c0-11.76,9.563-21.333,21.333-21.333S192,244.24,192,256C192,267.76,182.437,277.333,170.667,277.333z M298.667,298.667
				C310.437,298.667,320,308.24,320,320c0,11.76-9.563,21.333-21.333,21.333S277.333,331.76,277.333,320
				C277.333,308.24,286.896,298.667,298.667,298.667z"/>
		</g>
	</g>
</g>
<g>
</g>
<g>
</g>
<g>
</g>
<g>
</g>
<g>
</g>
<g>
</g>
<g>
</g>
<g>
</g>
<g>
</g>
<g>
</g>
<g>
</g>
<g>
</g>
<g>
</g>
<g>
</g>
<g>
</g>
</svg>
