<?xml version="1.0" encoding="iso-8859-1"?>
<!-- Generator: Adobe Illustrator 19.0.0, SVG Export Plug-In . SVG Version: 6.00 Build 0)  -->
<svg version="1.1" id="Capa_1" xmlns="http://www.w3.org/2000/svg" xmlns:xlink="http://www.w3.org/1999/xlink" x="0px" y="0px"
	 viewBox="0 0 48 48" style="enable-background:new 0 0 48 48;" xml:space="preserve">
<g>
	<g>
		<path d="M47.988,21.94c-0.006-0.091-0.023-0.179-0.054-0.266c-0.011-0.032-0.019-0.063-0.033-0.094
			c-0.048-0.103-0.108-0.199-0.191-0.283c-0.001-0.002-0.002-0.003-0.004-0.005L42,15.586V10c0-0.021-0.011-0.04-0.012-0.061
			c-0.006-0.089-0.023-0.175-0.052-0.259c-0.011-0.032-0.019-0.062-0.033-0.093c-0.049-0.106-0.11-0.207-0.196-0.293l-9-9
			c-0.086-0.086-0.186-0.147-0.292-0.195c-0.032-0.015-0.063-0.023-0.096-0.034c-0.083-0.028-0.166-0.045-0.253-0.051
			C32.043,0.012,32.023,0,32,0H7C6.447,0,6,0.448,6,1v14.586l-5.706,5.706c-0.002,0.002-0.002,0.003-0.004,0.005
			c-0.083,0.083-0.143,0.18-0.191,0.283c-0.014,0.03-0.022,0.062-0.033,0.094c-0.03,0.086-0.048,0.174-0.054,0.266
			C0.011,21.961,0,21.979,0,22v19c0,0.552,0.447,1,1,1h5v5c0,0.552,0.447,1,1,1h34c0.553,0,1-0.448,1-1v-5h5c0.553,0,1-0.448,1-1V22
			C48,21.979,47.989,21.961,47.988,21.94z M42,18.414L44.586,21H42V18.414z M33,3.414L38.586,9H33V3.414z M8,16V2h23v8
			c0,0.552,0.447,1,1,1h8v5v5H8V16z M6,18.414V21H3.414L6,18.414z M40,46H8v-4h32V46z M46,40H2V23h5h34h5V40z"/>
		<path d="M31.665,29.468c0.168-0.327,0.378-0.586,0.63-0.777c0.252-0.191,0.546-0.287,0.882-0.287c0.607,0,1.101,0.275,1.484,0.826
			l0.966-1.176c-0.271-0.392-0.621-0.693-1.05-0.903s-0.929-0.315-1.498-0.315c-0.551,0-1.052,0.128-1.505,0.385
			c-0.453,0.257-0.838,0.616-1.155,1.078c-0.317,0.462-0.562,1.013-0.735,1.652c-0.173,0.639-0.259,1.337-0.259,2.093
			c0,0.756,0.086,1.451,0.259,2.086c0.173,0.635,0.415,1.183,0.728,1.645s0.695,0.824,1.148,1.085
			c0.453,0.261,0.959,0.392,1.519,0.392c0.616,0,1.127-0.121,1.533-0.364c0.406-0.243,0.74-0.56,1.001-0.952l-0.966-1.134
			c-0.159,0.243-0.357,0.448-0.595,0.616c-0.238,0.168-0.52,0.252-0.847,0.252c-0.345,0-0.646-0.096-0.903-0.287
			c-0.257-0.191-0.469-0.45-0.637-0.777c-0.168-0.327-0.294-0.712-0.378-1.155s-0.126-0.912-0.126-1.407
			c0-0.504,0.042-0.978,0.126-1.421S31.497,29.795,31.665,29.468z"/>
		<polygon points="38.469,27.088 36.803,27.088 36.803,37 38.469,37 38.469,32.604 41.437,32.604 41.437,37 43.103,37 
			43.103,27.088 41.437,27.088 41.437,31.106 38.469,31.106 		"/>
		<polygon points="20.213,32.576 22.831,32.576 22.831,31.204 20.213,31.204 20.213,28.572 23.041,28.572 23.041,27.088 
			18.603,27.088 18.603,37 23.181,37 23.181,35.502 20.213,35.502 		"/>
		<polygon points="23.671,28.516 25.533,28.516 25.533,37 27.185,37 27.185,28.516 29.047,28.516 29.047,27.088 23.671,27.088 		"/>
		<polygon points="17.315,27.088 15.425,27.088 12.905,31.386 12.863,31.386 12.863,27.088 11.183,27.088 11.183,37 12.863,37 
			12.863,32.184 12.905,32.184 15.551,37 17.497,37 14.403,31.652 		"/>
		<path d="M6.549,28.67c0.121-0.112,0.257-0.194,0.406-0.245c0.149-0.051,0.303-0.077,0.462-0.077c0.551,0,1.008,0.219,1.372,0.658
			l0.924-1.204c-0.271-0.317-0.604-0.558-1.001-0.721c-0.397-0.163-0.847-0.245-1.351-0.245c-0.345,0-0.686,0.058-1.022,0.175
			c-0.336,0.117-0.637,0.296-0.903,0.539c-0.266,0.243-0.481,0.548-0.644,0.917s-0.245,0.81-0.245,1.323
			c0,0.411,0.054,0.763,0.161,1.057c0.107,0.294,0.252,0.551,0.434,0.77c0.182,0.219,0.392,0.408,0.63,0.567
			c0.238,0.159,0.492,0.303,0.763,0.434c0.429,0.215,0.784,0.448,1.064,0.7s0.42,0.593,0.42,1.022c0,0.439-0.117,0.779-0.35,1.022
			c-0.233,0.243-0.527,0.364-0.882,0.364c-0.317,0-0.628-0.075-0.931-0.224c-0.303-0.149-0.562-0.355-0.777-0.616l-0.91,1.232
			c0.28,0.327,0.653,0.597,1.12,0.812c0.467,0.215,0.975,0.322,1.526,0.322c0.383,0,0.747-0.065,1.092-0.196
			s0.646-0.324,0.903-0.581c0.257-0.257,0.462-0.572,0.616-0.945c0.154-0.373,0.231-0.803,0.231-1.288
			c0-0.42-0.065-0.784-0.196-1.092s-0.299-0.574-0.504-0.798c-0.205-0.224-0.434-0.415-0.686-0.574
			c-0.252-0.159-0.499-0.299-0.742-0.42c-0.411-0.205-0.742-0.422-0.994-0.651c-0.252-0.229-0.378-0.553-0.378-0.973
			c0-0.243,0.035-0.453,0.105-0.63C6.332,28.927,6.428,28.782,6.549,28.67z"/>
	</g>
</g>
<g>
</g>
<g>
</g>
<g>
</g>
<g>
</g>
<g>
</g>
<g>
</g>
<g>
</g>
<g>
</g>
<g>
</g>
<g>
</g>
<g>
</g>
<g>
</g>
<g>
</g>
<g>
</g>
<g>
</g>
</svg>
