<?xml version="1.0" encoding="iso-8859-1"?>
<!-- Generator: Adobe Illustrator 19.0.0, SVG Export Plug-In . SVG Version: 6.00 Build 0)  -->
<svg version="1.1" id="Capa_1" xmlns="http://www.w3.org/2000/svg" xmlns:xlink="http://www.w3.org/1999/xlink" x="0px" y="0px"
	 viewBox="0 0 48 48" style="enable-background:new 0 0 48 48;" xml:space="preserve">
<g>
	<g>
		<path d="M47.988,21.94c-0.006-0.091-0.023-0.179-0.054-0.266c-0.011-0.032-0.019-0.063-0.033-0.094
			c-0.048-0.103-0.108-0.199-0.191-0.283c-0.001-0.002-0.002-0.003-0.004-0.005L42,15.586V10c0-0.021-0.011-0.04-0.012-0.061
			c-0.006-0.089-0.023-0.175-0.052-0.259c-0.011-0.032-0.019-0.062-0.033-0.093c-0.049-0.106-0.11-0.207-0.196-0.293l-9-9
			c-0.086-0.086-0.186-0.147-0.292-0.195c-0.032-0.015-0.063-0.023-0.096-0.034c-0.083-0.028-0.166-0.045-0.253-0.051
			C32.043,0.012,32.023,0,32,0H7C6.447,0,6,0.448,6,1v14.586l-5.706,5.706c-0.002,0.002-0.002,0.003-0.004,0.005
			c-0.083,0.083-0.143,0.18-0.191,0.283c-0.014,0.03-0.022,0.062-0.033,0.094c-0.03,0.086-0.048,0.174-0.054,0.266
			C0.011,21.961,0,21.979,0,22v19c0,0.552,0.447,1,1,1h5v5c0,0.552,0.447,1,1,1h34c0.553,0,1-0.448,1-1v-5h5c0.553,0,1-0.448,1-1V22
			C48,21.979,47.989,21.961,47.988,21.94z M44.586,21H42v-2.586L44.586,21z M38.586,9H33V3.414L38.586,9z M8,2h23v8
			c0,0.552,0.447,1,1,1h8v5v5H8v-5V2z M6,18.414V21H3.414L6,18.414z M40,46H8v-4h32V46z M46,40H2V23h5h34h5V40z"/>
		<path d="M32.373,32.934h1.462v3.111c-0.136,0.102-0.314,0.184-0.535,0.246c-0.221,0.063-0.467,0.094-0.739,0.094
			c-0.431,0-0.802-0.113-1.114-0.34c-0.312-0.227-0.569-0.541-0.774-0.944c-0.204-0.402-0.357-0.872-0.459-1.411
			c-0.102-0.538-0.153-1.113-0.153-1.725c0-0.589,0.051-1.15,0.153-1.683s0.255-1,0.459-1.403c0.204-0.402,0.462-0.722,0.774-0.96
			c0.312-0.238,0.677-0.357,1.096-0.357c0.771,0,1.383,0.329,1.836,0.986l1.173-1.428c-0.329-0.465-0.754-0.824-1.275-1.08
			c-0.521-0.255-1.139-0.382-1.853-0.382c-0.68,0-1.292,0.156-1.836,0.467c-0.544,0.312-1.009,0.748-1.394,1.309
			c-0.385,0.562-0.68,1.227-0.884,1.998s-0.306,1.615-0.306,2.533c0,0.941,0.105,1.796,0.315,2.567s0.51,1.434,0.901,1.989
			s0.87,0.983,1.437,1.283c0.567,0.301,1.207,0.451,1.921,0.451c0.703,0,1.306-0.091,1.811-0.272c0.504-0.181,0.938-0.419,1.3-0.714
			v-6.103h-3.315C32.373,31.166,32.373,32.934,32.373,32.934z"/>
		<path d="M14.59,27.885c0.147-0.136,0.312-0.235,0.493-0.298c0.181-0.062,0.368-0.093,0.561-0.093c0.669,0,1.224,0.266,1.666,0.799
			l1.122-1.462c-0.329-0.385-0.734-0.677-1.215-0.876c-0.482-0.198-1.028-0.297-1.641-0.297c-0.419,0-0.833,0.071-1.241,0.212
			c-0.408,0.142-0.774,0.36-1.097,0.655c-0.323,0.295-0.584,0.666-0.782,1.113c-0.198,0.448-0.297,0.984-0.297,1.607
			c0,0.499,0.065,0.926,0.196,1.283c0.13,0.358,0.306,0.669,0.527,0.935c0.221,0.267,0.476,0.496,0.765,0.689
			c0.289,0.193,0.598,0.368,0.927,0.527c0.521,0.261,0.952,0.544,1.292,0.85c0.34,0.306,0.51,0.72,0.51,1.241
			c0,0.533-0.142,0.946-0.425,1.241s-0.64,0.442-1.071,0.442c-0.385,0-0.762-0.091-1.13-0.272c-0.368-0.181-0.683-0.431-0.943-0.748
			l-1.105,1.496c0.34,0.397,0.793,0.725,1.36,0.986s1.184,0.391,1.853,0.391c0.465,0,0.907-0.079,1.326-0.238
			c0.419-0.159,0.785-0.394,1.097-0.706c0.312-0.311,0.561-0.694,0.748-1.147s0.281-0.975,0.281-1.564
			c0-0.51-0.079-0.952-0.238-1.326c-0.159-0.374-0.363-0.697-0.612-0.969c-0.249-0.272-0.527-0.504-0.833-0.697
			c-0.306-0.193-0.606-0.363-0.901-0.51c-0.499-0.249-0.901-0.513-1.207-0.791c-0.306-0.277-0.459-0.671-0.459-1.181
			c0-0.295,0.042-0.55,0.127-0.765S14.443,28.021,14.59,27.885z"/>
		<polygon points="23.176,35.62 23.125,35.62 21.118,25.964 18.84,25.964 21.781,38 24.365,38 27.358,25.964 25.181,25.964 		"/>
	</g>
</g>
<g>
</g>
<g>
</g>
<g>
</g>
<g>
</g>
<g>
</g>
<g>
</g>
<g>
</g>
<g>
</g>
<g>
</g>
<g>
</g>
<g>
</g>
<g>
</g>
<g>
</g>
<g>
</g>
<g>
</g>
</svg>
