<?xml version="1.0" encoding="iso-8859-1"?>
<!-- Generator: Adobe Illustrator 19.0.0, SVG Export Plug-In . SVG Version: 6.00 Build 0)  -->
<svg version="1.1" id="Capa_1" xmlns="http://www.w3.org/2000/svg" xmlns:xlink="http://www.w3.org/1999/xlink" x="0px" y="0px"
	 viewBox="0 0 54.962 54.962" style="enable-background:new 0 0 54.962 54.962;" xml:space="preserve">
<g>
	<g>
		<path d="M46.547,17.332L45.84,2.482c-0.025-0.515-0.437-0.927-0.952-0.951L30.039,0.824c-0.281-0.011-0.555,0.093-0.754,0.292
			L0.293,30.107C0.105,30.295,0,30.549,0,30.814s0.105,0.52,0.293,0.707L15.85,47.078c0.195,0.195,0.451,0.293,0.707,0.293
			s0.512-0.098,0.707-0.293l28.991-28.991C46.454,17.887,46.56,17.613,46.547,17.332z M16.557,44.957L2.414,30.814L30.386,2.843
			l13.499,0.644l0.643,13.499L16.557,44.957z"/>
		<path d="M43.72,33.688l1.173,0.018l0.031-2l-1.204-0.018c-1.406,0-2.781,0.258-4.087,0.768l-0.932,0.363l0.727,1.863l0.932-0.363
			C41.433,33.9,42.563,33.688,43.72,33.688z"/>
		<path d="M34.711,40.892c0.266-1.185,0.753-2.287,1.451-3.277l0.576-0.817l-1.636-1.151l-0.576,0.818
			c-0.849,1.205-1.443,2.548-1.766,3.99l-0.219,0.976l1.952,0.438L34.711,40.892z"/>
		<path d="M53.691,37.647l-0.545-0.839c-0.426-0.656-0.926-1.272-1.485-1.83c-0.478-0.479-1-0.915-1.553-1.298l-0.822-0.57
			l-1.14,1.643l0.821,0.57c0.455,0.316,0.886,0.676,1.28,1.069c0.46,0.46,0.871,0.967,1.221,1.506l0.544,0.839L53.691,37.647z"/>
		<path d="M52.962,42.024l-0.011,1c-0.013,1.216-0.26,2.397-0.733,3.511l-0.391,0.92l1.841,0.782l0.391-0.921
			c0.576-1.354,0.875-2.791,0.892-4.271l0.011-1L52.962,42.024z"/>
		<path d="M48.799,50.632c-1.011,0.667-2.128,1.122-3.32,1.354l-0.982,0.189l0.38,1.964l0.981-0.19
			c1.451-0.28,2.811-0.835,4.042-1.646l0.834-0.551l-1.101-1.67L48.799,50.632z"/>
		<path d="M37.192,49.449L37,49.252c-0.834-0.885-1.477-1.905-1.907-3.035l-0.356-0.935l-1.869,0.713l0.356,0.935
			c0.445,1.168,1.075,2.24,1.877,3.195l-0.031,0.031l1.162,1.196l0.031-0.03c0.932,0.829,1.984,1.491,3.137,1.97l0.923,0.385
			l0.768-1.847l-0.923-0.384C39.054,50.982,38.052,50.31,37.192,49.449z"/>
		<rect x="37.86" y="42.012" width="12" height="2"/>
		<path d="M32.113,9.601c-0.755,0.756-1.171,1.76-1.171,2.828s0.416,2.073,1.171,2.828c0.756,0.756,1.76,1.172,2.829,1.172
			s2.073-0.416,2.828-1.172c0.755-0.755,1.172-1.759,1.172-2.828c0-1.068-0.416-2.072-1.172-2.828
			C36.259,8.09,33.624,8.09,32.113,9.601z M36.355,13.844c-0.756,0.756-2.073,0.756-2.829,0c-0.377-0.378-0.585-0.88-0.585-1.414
			s0.208-1.036,0.585-1.414c0.378-0.378,0.88-0.586,1.415-0.586s1.036,0.208,1.414,0.586s0.586,0.88,0.586,1.414
			S36.733,13.466,36.355,13.844z"/>
	</g>
</g>
<g>
</g>
<g>
</g>
<g>
</g>
<g>
</g>
<g>
</g>
<g>
</g>
<g>
</g>
<g>
</g>
<g>
</g>
<g>
</g>
<g>
</g>
<g>
</g>
<g>
</g>
<g>
</g>
<g>
</g>
</svg>
