<?xml version="1.0" encoding="iso-8859-1"?>
<!-- Generator: Adobe Illustrator 19.0.0, SVG Export Plug-In . SVG Version: 6.00 Build 0)  -->
<svg version="1.1" id="Capa_1" xmlns="http://www.w3.org/2000/svg" xmlns:xlink="http://www.w3.org/1999/xlink" x="0px" y="0px"
	 viewBox="0 0 54.963 54.963" style="enable-background:new 0 0 54.963 54.963;" xml:space="preserve">
<g>
	<g>
		<path d="M46.547,17.333L45.84,2.483c-0.024-0.515-0.437-0.927-0.951-0.951l-14.85-0.707c-0.299-0.011-0.557,0.093-0.755,0.292
			L0.293,30.108c-0.391,0.391-0.391,1.023,0,1.414L15.85,47.079c0.195,0.195,0.451,0.293,0.707,0.293s0.512-0.098,0.707-0.293
			l28.991-28.991C46.454,17.888,46.56,17.614,46.547,17.333z M16.557,44.958L2.414,30.815L30.386,2.844l13.499,0.644l0.644,13.499
			L16.557,44.958z"/>
		<path d="M38.702,32.819l0.727,1.863l0.932-0.363c1.071-0.418,2.201-0.63,3.359-0.63l1.174,0.018l0.031-2l-1.205-0.018
			c-1.408,0-2.783,0.258-4.086,0.767L38.702,32.819z"/>
		<path d="M52.963,42.025l-0.011,1c-0.014,1.216-0.26,2.396-0.733,3.51l-0.392,0.921l1.841,0.782l0.391-0.92
			c0.577-1.355,0.877-2.793,0.894-4.271l0.011-1L52.963,42.025z"/>
		<path d="M34.712,40.892c0.266-1.185,0.754-2.287,1.45-3.277l0.576-0.817l-1.636-1.151l-0.575,0.818
			c-0.85,1.205-1.443,2.548-1.767,3.99l-0.219,0.976l1.951,0.438L34.712,40.892z"/>
		<path d="M53.692,37.649l-0.545-0.839c-0.426-0.655-0.926-1.271-1.485-1.831c-0.478-0.478-1-0.914-1.553-1.298l-0.821-0.57
			l-1.141,1.643l0.821,0.57c0.455,0.316,0.886,0.676,1.279,1.069c0.461,0.461,0.872,0.968,1.222,1.507l0.545,0.839L53.692,37.649z"
			/>
		<path d="M37.191,49.45l-0.192-0.196c-0.835-0.887-1.477-1.907-1.906-3.036l-0.356-0.935l-1.869,0.713l0.356,0.935
			c0.445,1.167,1.075,2.239,1.877,3.196l-0.03,0.03l1.159,1.196l0.033-0.031c0.933,0.83,1.986,1.492,3.139,1.972l0.923,0.384
			l0.769-1.847l-0.924-0.385C39.055,50.983,38.053,50.311,37.191,49.45z"/>
		<path d="M48.8,50.634c-1.011,0.668-2.127,1.122-3.319,1.353l-0.981,0.188l0.378,1.964l0.982-0.189
			c1.451-0.279,2.812-0.833,4.042-1.646l0.835-0.552l-1.103-1.669L48.8,50.634z"/>
		<path d="M44.81,49.062v-8.556l3.251,3.25l1.414-1.414l-4.95-4.949c-0.391-0.391-1.023-0.391-1.414,0l-4.949,4.949l1.414,1.414
			l3.234-3.234v8.54L44.81,49.062L44.81,49.062z"/>
		<path d="M32.113,9.602c-0.756,0.756-1.172,1.76-1.172,2.828s0.416,2.073,1.172,2.828c0.755,0.756,1.76,1.172,2.828,1.172
			s2.072-0.416,2.828-1.172c0.756-0.755,1.172-1.759,1.172-2.828c0-1.068-0.416-2.072-1.172-2.828
			C36.257,8.09,33.622,8.092,32.113,9.602z M36.355,13.845c-0.756,0.756-2.072,0.756-2.828,0c-0.378-0.378-0.586-0.88-0.586-1.414
			s0.208-1.036,0.586-1.414s0.88-0.586,1.414-0.586s1.036,0.208,1.414,0.586s0.586,0.88,0.586,1.414S36.733,13.467,36.355,13.845z"
			/>
	</g>
</g>
<g>
</g>
<g>
</g>
<g>
</g>
<g>
</g>
<g>
</g>
<g>
</g>
<g>
</g>
<g>
</g>
<g>
</g>
<g>
</g>
<g>
</g>
<g>
</g>
<g>
</g>
<g>
</g>
<g>
</g>
</svg>
