<?xml version="1.0" encoding="iso-8859-1"?>
<!-- Generator: Adobe Illustrator 19.0.0, SVG Export Plug-In . SVG Version: 6.00 Build 0)  -->
<svg version="1.1" id="Capa_1" xmlns="http://www.w3.org/2000/svg" xmlns:xlink="http://www.w3.org/1999/xlink" x="0px" y="0px"
	 viewBox="0 0 46.549 46.549" style="enable-background:new 0 0 46.549 46.549;" xml:space="preserve">
<g>
	<g>
		<path d="M45.84,1.661c-0.025-0.515-0.437-0.927-0.952-0.951L30.04,0.002c-0.283-0.021-0.555,0.092-0.754,0.292L0.294,29.286
			c-0.188,0.188-0.293,0.441-0.293,0.707s0.105,0.52,0.293,0.707L15.85,46.256c0.195,0.195,0.451,0.293,0.707,0.293
			s0.512-0.098,0.707-0.293l28.991-28.991c0.199-0.199,0.305-0.474,0.292-0.755L45.84,1.661z M16.557,44.135L2.415,29.993
			L30.387,2.021l13.499,0.644l0.643,13.499L16.557,44.135z"/>
		<path d="M32.113,8.78c-0.755,0.756-1.171,1.76-1.171,2.828s0.416,2.073,1.171,2.828c0.756,0.756,1.76,1.172,2.829,1.172
			s2.073-0.416,2.828-1.172c0.755-0.755,1.172-1.759,1.172-2.828c0-1.068-0.416-2.072-1.172-2.828
			C36.259,7.268,33.624,7.268,32.113,8.78z M36.356,13.022c-0.756,0.756-2.073,0.756-2.829,0c-0.377-0.378-0.585-0.88-0.585-1.414
			s0.208-1.036,0.585-1.414c0.378-0.378,0.88-0.586,1.415-0.586s1.036,0.208,1.414,0.586s0.586,0.88,0.586,1.414
			S36.734,12.644,36.356,13.022z"/>
	</g>
</g>
<g>
</g>
<g>
</g>
<g>
</g>
<g>
</g>
<g>
</g>
<g>
</g>
<g>
</g>
<g>
</g>
<g>
</g>
<g>
</g>
<g>
</g>
<g>
</g>
<g>
</g>
<g>
</g>
<g>
</g>
</svg>
