<?xml version="1.0" encoding="iso-8859-1"?>
<!-- Generator: Adobe Illustrator 19.0.0, SVG Export Plug-In . SVG Version: 6.00 Build 0)  -->
<svg version="1.1" id="Capa_1" xmlns="http://www.w3.org/2000/svg" xmlns:xlink="http://www.w3.org/1999/xlink" x="0px" y="0px"
	 viewBox="0 0 53 53" style="enable-background:new 0 0 53 53;" xml:space="preserve">
<g>
	<g>
		<path d="M45.707,10.074l-9.794-9.782C35.725,0.105,35.471,0,35.206,0H8C7.448,0,7,0.447,7,1v51c0,0.553,0.448,1,1,1h37
			c0.552,0,1-0.447,1-1V10.782C46,10.517,45.895,10.263,45.707,10.074z M42.586,10H36V3.414L42.586,10z M9,51V2h25v9
			c0,0.553,0.448,1,1,1h9v39H9z"/>
		<path d="M26.5,16C19.056,16,13,22.056,13,29.5S19.056,43,26.5,43S40,36.944,40,29.5S33.944,16,26.5,16z M26.5,41
			C20.159,41,15,35.841,15,29.5S20.159,18,26.5,18S38,23.159,38,29.5S32.841,41,26.5,41z"/>
		<polygon points="18.258,26.863 20.807,26.863 20.807,34 22.541,34 22.541,26.863 25.084,26.863 25.084,25.41 18.258,25.41 		"/>
		<polygon points="30.334,31.27 28.775,25.41 26.18,25.41 26.18,34 27.791,34 27.791,27.238 29.49,34 31.16,34 32.865,27.238 
			32.865,34 34.477,34 34.477,25.41 31.875,25.41 		"/>
	</g>
</g>
<g>
</g>
<g>
</g>
<g>
</g>
<g>
</g>
<g>
</g>
<g>
</g>
<g>
</g>
<g>
</g>
<g>
</g>
<g>
</g>
<g>
</g>
<g>
</g>
<g>
</g>
<g>
</g>
<g>
</g>
</svg>
