<?xml version="1.0" encoding="iso-8859-1"?>
<!-- Generator: Adobe Illustrator 19.0.0, SVG Export Plug-In . SVG Version: 6.00 Build 0)  -->
<svg version="1.1" id="Capa_1" xmlns="http://www.w3.org/2000/svg" xmlns:xlink="http://www.w3.org/1999/xlink" x="0px" y="0px"
	 viewBox="0 0 53 53" style="enable-background:new 0 0 53 53;" xml:space="preserve">
<g>
	<g>
		<path d="M45.707,10.074l-9.794-9.782C35.725,0.105,35.471,0,35.206,0H8C7.448,0,7,0.447,7,1v51c0,0.553,0.448,1,1,1h37
			c0.552,0,1-0.447,1-1V10.782C46,10.517,45.895,10.263,45.707,10.074z M42.586,10H36V3.414L42.586,10z M9,51V2h25v9
			c0,0.553,0.448,1,1,1h9v39H9z"/>
		<path d="M39,17H14c-0.552,0-1,0.447-1,1v28c0,0.553,0.448,1,1,1h25c0.552,0,1-0.447,1-1V18C40,17.447,39.552,17,39,17z M38,45H15
			V19h23V45z"/>
		<path d="M20,41h13c0.552,0,1-0.447,1-1v-9c0-0.553-0.448-1-1-1H22.632c-1.075-2.06-0.419-4.637,1.585-5.89
			c1.02-0.637,2.228-0.837,3.397-0.568c1.171,0.271,2.167,0.981,2.804,2.001c0.294,0.468,0.911,0.612,1.378,0.317
			c0.468-0.292,0.611-0.909,0.318-1.378c-1.899-3.038-5.916-3.968-8.957-2.067C20.557,24.04,19.51,27.214,20.447,30H20
			c-0.552,0-1,0.447-1,1v9C19,40.553,19.448,41,20,41z M32,39H21v-7h11V39z"/>
	</g>
</g>
<g>
</g>
<g>
</g>
<g>
</g>
<g>
</g>
<g>
</g>
<g>
</g>
<g>
</g>
<g>
</g>
<g>
</g>
<g>
</g>
<g>
</g>
<g>
</g>
<g>
</g>
<g>
</g>
<g>
</g>
</svg>
