<?xml version="1.0" encoding="iso-8859-1"?>
<!-- Generator: Adobe Illustrator 19.0.0, SVG Export Plug-In . SVG Version: 6.00 Build 0)  -->
<svg version="1.1" id="Capa_1" xmlns="http://www.w3.org/2000/svg" xmlns:xlink="http://www.w3.org/1999/xlink" x="0px" y="0px"
	 viewBox="0 0 53 53" style="enable-background:new 0 0 53 53;" xml:space="preserve">
<g>
	<g>
		<path d="M45.707,10.074l-9.794-9.782C35.726,0.105,35.471,0,35.206,0H8C7.447,0,7,0.447,7,1v51c0,0.553,0.447,1,1,1h37
			c0.553,0,1-0.447,1-1V10.782C46,10.517,45.895,10.263,45.707,10.074z M42.586,10H36V3.414L42.586,10z M9,51V2h25v9
			c0,0.553,0.447,1,1,1h9v39H9z"/>
		<path d="M35.496,29.132l-14-8c-0.309-0.177-0.69-0.176-0.998,0.003C20.189,21.315,20,21.644,20,22v16
			c0,0.356,0.189,0.686,0.498,0.865C20.653,38.955,20.826,39,21,39c0.171,0,0.343-0.044,0.496-0.132l14-8
			C35.808,30.69,36,30.358,36,30S35.808,29.31,35.496,29.132z M22,36.276V23.724L32.984,30L22,36.276z"/>
	</g>
</g>
<g>
</g>
<g>
</g>
<g>
</g>
<g>
</g>
<g>
</g>
<g>
</g>
<g>
</g>
<g>
</g>
<g>
</g>
<g>
</g>
<g>
</g>
<g>
</g>
<g>
</g>
<g>
</g>
<g>
</g>
</svg>
