<?xml version="1.0" encoding="iso-8859-1"?>
<!-- Generator: Adobe Illustrator 19.0.0, SVG Export Plug-In . SVG Version: 6.00 Build 0)  -->
<svg version="1.1" id="Capa_1" xmlns="http://www.w3.org/2000/svg" xmlns:xlink="http://www.w3.org/1999/xlink" x="0px" y="0px"
	 viewBox="0 0 48 48" style="enable-background:new 0 0 48 48;" xml:space="preserve">
<g>
	<g>
		<path d="M47.988,21.94c-0.006-0.091-0.023-0.179-0.054-0.266c-0.011-0.032-0.019-0.063-0.033-0.094
			c-0.048-0.103-0.108-0.199-0.191-0.283c-0.001-0.002-0.002-0.003-0.004-0.005L42,15.586V10c0-0.021-0.011-0.04-0.012-0.061
			c-0.006-0.089-0.023-0.175-0.052-0.259c-0.011-0.032-0.019-0.062-0.033-0.093c-0.049-0.106-0.11-0.207-0.196-0.293l-9-9
			c-0.086-0.086-0.186-0.147-0.292-0.196c-0.031-0.014-0.063-0.023-0.095-0.034c-0.083-0.028-0.168-0.045-0.256-0.051
			C32.042,0.011,32.022,0,32,0H7C6.447,0,6,0.448,6,1v14.586l-5.706,5.706c-0.002,0.002-0.002,0.003-0.004,0.005
			c-0.083,0.083-0.143,0.18-0.191,0.283c-0.014,0.03-0.022,0.062-0.033,0.094c-0.03,0.086-0.048,0.174-0.054,0.266
			C0.011,21.961,0,21.979,0,22v19c0,0.552,0.447,1,1,1h5v5c0,0.552,0.447,1,1,1h34c0.553,0,1-0.448,1-1v-5h5c0.553,0,1-0.448,1-1V22
			C48,21.979,47.989,21.961,47.988,21.94z M44.586,21H42v-2.586L44.586,21z M38.586,9H33V3.414L38.586,9z M8,2h23v8
			c0,0.552,0.447,1,1,1h8v5v5H8v-5V2z M6,18.414V21H3.414L6,18.414z M40,46H8v-4h32V46z M46,40H2V23h5h34h5V40z"/>
		<path d="M35.603,25.964L32.611,38h2.04l0.612-2.55h3.162L39.02,38h2.125l-2.941-12.036H35.603z M35.518,33.852l1.309-5.967h0.068
			l1.275,5.967H35.518z"/>
		<polygon points="26.236,34.77 26.167,34.77 23.855,25.964 21.118,25.964 21.118,38 22.972,38 22.938,28.752 22.989,28.752 
			25.351,38 26.949,38 29.364,28.752 29.414,28.752 29.381,38 31.369,38 31.369,25.964 28.497,25.964 		"/>
		<polygon points="16.171,35.314 16.138,35.314 14.472,25.964 12.33,25.964 10.715,35.314 10.646,35.314 9.099,25.964 7.025,25.964 
			9.321,38 11.667,38 13.333,28.956 13.366,28.956 15.033,38 17.378,38 19.691,25.964 17.719,25.964 		"/>
	</g>
</g>
<g>
</g>
<g>
</g>
<g>
</g>
<g>
</g>
<g>
</g>
<g>
</g>
<g>
</g>
<g>
</g>
<g>
</g>
<g>
</g>
<g>
</g>
<g>
</g>
<g>
</g>
<g>
</g>
<g>
</g>
</svg>
